<?xml version="1.0" standalone="no"?>
<!DOCTYPE svg PUBLIC "-//W3C//DTD SVG 20010904//EN"
 "http://www.w3.org/TR/2001/REC-SVG-20010904/DTD/svg10.dtd">
<svg version="1.0" xmlns="http://www.w3.org/2000/svg"
 width="512.000000pt" height="512.000000pt" viewBox="0 0 512.000000 512.000000"
 preserveAspectRatio="xMidYMid meet">

<g transform="translate(0.000000,512.000000) scale(0.100000,-0.100000)"
fill="#000000" stroke="none">
<path d="M2100 5104 c-120 -32 -232 -138 -269 -254 l-11 -35 -102 0 c-92 0
-109 -3 -159 -28 -147 -72 -229 -198 -230 -358 -1 -95 14 -139 97 -284 41 -72
74 -133 74 -137 0 -3 -15 -9 -32 -12 -53 -10 -133 -51 -176 -91 -127 -114
-167 -303 -98 -460 23 -52 61 -94 282 -315 139 -141 254 -260 254 -265 0 -5
-366 -377 -814 -825 -784 -786 -815 -818 -850 -890 -92 -191 -85 -407 21 -590
27 -46 92 -120 228 -256 176 -177 196 -194 275 -233 188 -92 373 -94 558 -5
68 32 97 57 249 206 113 112 173 179 176 196 13 66 -56 133 -119 118 -18 -5
-87 -65 -184 -160 -85 -85 -174 -163 -198 -175 -175 -89 -364 -56 -506 88
l-59 59 44 12 c140 36 293 98 414 167 171 98 258 175 753 667 l483 480 92 -92
92 -92 -182 -182 c-118 -119 -184 -193 -189 -212 -15 -63 52 -132 117 -119 17
3 141 120 375 354 192 192 353 349 359 349 5 0 124 -115 265 -254 221 -221
263 -259 315 -282 157 -69 346 -29 460 98 40 43 81 123 91 176 3 17 9 32 12
32 4 0 65 -33 137 -74 145 -83 189 -98 284 -97 159 1 291 86 360 231 23 48 26
68 26 158 l0 102 35 11 c199 64 313 291 250 501 -29 98 -131 205 -234 246
l-49 19 2 85 c2 65 -3 97 -19 141 -42 112 -137 208 -240 242 l-47 16 14 51
c26 103 6 233 -47 308 -12 17 -21 33 -19 34 2 2 65 20 139 40 174 47 226 73
293 146 122 132 140 319 45 477 -25 42 -100 118 -125 128 -1 1 8 28 21 60 63
157 32 312 -86 431 -117 120 -291 152 -445 84 l-46 -20 -15 22 c-27 41 -92 97
-135 120 -167 85 -355 53 -482 -83 -57 -61 -74 -99 -121 -269 -20 -74 -38
-136 -39 -138 -2 -2 -20 8 -42 22 -80 52 -203 68 -323 40 -23 -5 -27 -1 -43
45 -25 72 -112 162 -195 203 -60 30 -76 33 -166 35 l-100 2 -19 49 c-70 184
-281 289 -477 236z m178 -200 c44 -18 88 -58 109 -98 8 -16 18 -65 21 -110 5
-71 9 -84 33 -108 36 -37 75 -36 142 2 141 79 308 -12 307 -167 -1 -49 -14
-78 -154 -318 -128 -221 -138 -254 -92 -300 36 -36 67 -40 136 -16 33 12 68
21 78 21 65 0 147 -52 179 -114 21 -40 21 -132 0 -171 -9 -16 -268 -282 -576
-590 l-561 -560 -92 92 -92 93 126 127 c69 71 129 138 133 151 4 13 4 35 0 50
-4 17 -115 136 -299 322 -317 319 -323 326 -314 421 12 124 144 208 258 163
94 -36 162 -12 176 63 6 30 -8 59 -131 272 -130 227 -136 241 -136 294 0 113
71 188 185 195 53 3 68 0 118 -27 63 -34 84 -37 123 -19 38 17 55 58 55 130 0
77 25 135 72 171 64 49 128 60 196 31z m1710 -110 c62 -26 100 -71 123 -146
22 -77 45 -98 102 -98 32 0 48 8 90 46 70 63 102 78 167 78 61 -1 102 -18 141
-61 40 -43 52 -73 53 -133 1 -63 -28 -121 -88 -179 -30 -29 -36 -42 -36 -76 0
-59 20 -81 98 -104 75 -23 120 -61 146 -123 38 -90 -1 -200 -87 -244 -15 -8
-134 -43 -265 -78 -130 -35 -245 -67 -255 -71 -23 -10 -47 -56 -47 -93 0 -40
25 -68 90 -100 36 -18 65 -42 85 -71 26 -37 30 -51 30 -110 0 -58 -4 -74 -28
-108 -47 -68 -94 -87 -222 -91 l-111 -4 -27 40 c-94 143 -255 211 -418 177
-39 -8 -92 -26 -118 -41 -29 -17 -465 -445 -1201 -1179 -1024 -1021 -1166
-1159 -1249 -1214 -100 -66 -179 -109 -261 -141 l-50 -20 20 50 c32 82 75 161
141 261 55 83 193 225 1214 1249 734 736 1162 1172 1179 1201 87 151 59 353
-65 478 -27 26 -65 56 -85 67 l-36 19 4 115 c4 133 23 180 91 227 34 24 50 28
108 28 59 0 73 -4 110 -30 29 -20 53 -49 71 -85 15 -30 37 -63 49 -72 43 -36
127 -13 147 39 6 15 38 131 72 257 34 126 67 241 75 255 43 84 154 123 243 85z
m-287 -1760 c57 -29 109 -113 109 -176 0 -10 -9 -45 -21 -78 -24 -69 -20 -100
16 -136 47 -46 79 -37 300 92 242 141 269 153 320 154 53 0 121 -35 159 -83
25 -31 31 -49 34 -102 4 -58 1 -70 -27 -120 -39 -69 -40 -108 -3 -144 24 -24
37 -28 109 -34 94 -7 127 -21 170 -71 119 -135 23 -326 -164 -326 -74 0 -109
-14 -129 -51 -21 -41 -18 -63 17 -127 27 -50 30 -65 27 -118 -7 -114 -82 -185
-195 -185 -53 0 -67 6 -294 136 -213 123 -242 137 -272 131 -37 -7 -71 -38
-82 -74 -4 -13 2 -47 15 -85 47 -134 -27 -262 -159 -275 -95 -9 -102 -3 -421
313 -162 161 -305 296 -318 300 -47 14 -77 -7 -222 -151 l-146 -144 -92 93
-92 92 588 587 c439 439 595 588 617 593 17 4 35 8 40 10 17 6 89 -7 116 -21z
m-2440 -1299 c-526 -528 -593 -605 -698 -796 -29 -52 -71 -144 -93 -204 -60
-162 -54 -152 -97 -158 -50 -6 -82 24 -129 118 -58 118 -57 247 3 370 19 39
170 195 676 702 l652 653 92 -92 93 -92 -499 -501z"/>
<path d="M2129 4121 l-29 -29 0 -347 0 -347 29 -29 c51 -51 137 -33 160 33 7
20 11 146 11 343 0 197 -4 323 -11 343 -23 66 -109 84 -160 33z"/>
<path d="M3934 4081 c-21 -15 -105 -96 -186 -179 -146 -147 -148 -150 -148
-194 0 -61 38 -98 99 -98 43 0 47 3 208 163 91 89 171 174 179 189 23 44 17
77 -20 114 -43 43 -79 44 -132 5z"/>
<path d="M3386 2295 c-41 -22 -55 -44 -56 -88 0 -29 7 -45 29 -68 l29 -29 347
0 347 0 29 29 c51 51 33 137 -33 160 -20 7 -147 11 -347 11 -263 0 -321 -3
-345 -15z"/>
<path d="M1759 896 c-40 -13 -71 -66 -62 -108 23 -114 193 -96 193 20 0 69
-61 111 -131 88z"/>
</g>
</svg>
