<?xml version="1.0" standalone="no"?>
<!DOCTYPE svg PUBLIC "-//W3C//DTD SVG 20010904//EN"
 "http://www.w3.org/TR/2001/REC-SVG-20010904/DTD/svg10.dtd">
<svg version="1.0" xmlns="http://www.w3.org/2000/svg"
 width="50px" height="50px" viewBox="0 0 512.000000 512.000000"
 preserveAspectRatio="xMidYMid meet">

<g transform="translate(0.000000,512.000000) scale(0.100000,-0.100000)"
fill="#000000" stroke="none">
<path d="M2860 5114 c-257 -30 -417 -74 -597 -162 -187 -91 -321 -188 -473
-342 -238 -240 -386 -521 -456 -869 -9 -42 -19 -150 -22 -239 l-7 -164 -140
-47 c-372 -125 -670 -352 -882 -671 -261 -392 -344 -876 -232 -1335 148 -604
629 -1085 1234 -1234 172 -42 231 -46 725 -46 404 0 489 3 570 17 361 65 665
223 920 478 222 223 364 470 441 769 16 64 33 119 37 122 4 4 46 22 94 42 201
81 380 199 539 357 271 270 431 580 490 955 17 107 17 389 0 495 -46 295 -152
544 -334 785 -78 104 -638 664 -742 742 -234 177 -478 283 -755 329 -86 14
-345 26 -410 18z m390 -333 c25 -6 73 -19 108 -28 l62 -16 0 -126 c0 -196 31
-331 115 -506 138 -286 380 -500 680 -603 121 -41 214 -55 367 -55 l147 0 21
-81 c113 -417 31 -859 -219 -1191 -96 -127 -233 -255 -363 -338 -82 -52 -157
-89 -168 -82 -6 4 -10 27 -10 53 0 164 -80 455 -180 652 -208 411 -624 746
-1071 860 -187 48 -234 52 -686 57 l-433 5 0 63 c0 326 143 679 375 923 213
226 468 362 780 417 92 16 400 13 475 -4z m559 -248 c78 -55 647 -621 715
-710 l47 -63 -38 0 c-48 0 -159 24 -238 50 -201 67 -401 256 -492 465 -37 85
-85 305 -67 305 4 0 36 -21 73 -47z m-1309 -1486 l75 -12 -60 -48 c-84 -67
-172 -115 -278 -150 -88 -30 -99 -31 -257 -31 -161 -1 -167 0 -260 32 -52 18
-120 47 -150 64 -66 37 -173 118 -166 125 3 3 42 11 88 18 112 18 901 19 1008
2z m490 -170 c157 -89 307 -222 416 -367 73 -97 171 -287 208 -403 77 -240 85
-507 21 -757 -119 -466 -480 -841 -940 -975 -173 -50 -226 -55 -695 -55 -511
0 -569 6 -777 80 -375 133 -689 447 -823 823 -65 182 -85 321 -77 524 11 274
89 506 243 729 102 147 300 325 455 411 l47 25 83 -83 c101 -101 187 -164 306
-223 175 -88 317 -121 523 -121 206 0 348 33 523 121 122 61 207 124 307 226
47 48 90 87 95 88 6 0 44 -19 85 -43z"/>
</g>
</svg>
