<?xml version="1.0" standalone="no"?>
<!DOCTYPE svg PUBLIC "-//W3C//DTD SVG 20010904//EN"
 "http://www.w3.org/TR/2001/REC-SVG-20010904/DTD/svg10.dtd">
<svg version="1.0" xmlns="http://www.w3.org/2000/svg"
 width="512.000000pt" height="512.000000pt" viewBox="0 0 512.000000 512.000000"
 preserveAspectRatio="xMidYMid meet">

<g transform="translate(0.000000,512.000000) scale(0.100000,-0.100000)"
fill="#000000" stroke="none">
<path d="M2415 4679 c-109 -13 -227 -42 -337 -83 -64 -23 -119 -36 -176 -40
-279 -22 -550 -137 -773 -330 -41 -36 -90 -83 -107 -105 -18 -22 -65 -59 -105
-82 -293 -171 -510 -441 -615 -764 -18 -56 -48 -116 -77 -159 -91 -135 -162
-311 -202 -497 -34 -164 -15 -552 30 -613 7 -8 329 -222 717 -476 l705 -460
18 -77 c48 -209 190 -389 382 -482 154 -76 151 -76 685 -76 428 0 481 2 540
18 267 74 476 294 529 558 l12 57 714 466 c393 257 716 475 719 484 44 146 55
443 23 604 -35 176 -108 352 -212 508 -24 37 -57 106 -74 160 -71 211 -165
364 -326 526 -101 102 -207 184 -295 229 -19 10 -84 66 -145 124 -243 236
-500 356 -840 390 -61 6 -127 22 -205 50 -186 65 -406 92 -585 70z m255 -299
c103 -13 240 -48 246 -64 2 -6 -45 -335 -106 -731 -60 -396 -110 -729 -110
-741 0 -20 9 -23 113 -38 61 -10 126 -20 144 -23 28 -4 32 -2 37 24 3 15 53
343 111 728 59 385 108 705 110 711 3 9 23 8 77 -2 194 -37 375 -128 515 -258
l58 -54 -340 -687 c-187 -377 -341 -692 -343 -698 -3 -13 253 -145 262 -136 3
3 152 302 331 664 179 363 328 661 330 664 3 2 24 -9 47 -25 76 -51 196 -180
258 -276 59 -91 124 -236 118 -264 -2 -7 -220 -234 -485 -503 -266 -269 -483
-493 -483 -497 0 -13 193 -204 205 -204 6 0 62 53 125 118 273 280 794 802
797 798 15 -15 85 -196 104 -271 19 -75 23 -116 24 -245 0 -92 -4 -162 -11
-173 -5 -10 -336 -231 -735 -491 l-724 -474 -5 -94 c-4 -83 -9 -103 -42 -170
-60 -119 -157 -196 -284 -223 -83 -18 -806 -22 -895 -5 -125 23 -254 122 -304
232 -25 55 -45 154 -45 223 l0 40 -725 474 c-399 261 -728 478 -731 482 -12
20 -16 232 -5 314 13 94 63 261 104 341 l23 46 454 -461 c250 -254 457 -461
461 -461 10 0 209 191 209 201 0 5 -220 232 -489 505 l-490 497 25 66 c54 143
150 288 260 390 65 61 141 117 148 110 2 -2 149 -299 326 -659 178 -360 326
-659 330 -663 6 -6 252 102 268 118 2 2 -149 315 -337 695 -188 380 -341 695
-341 700 0 13 112 113 171 152 75 49 184 103 260 127 53 17 207 52 210 47 0 0
51 -331 113 -733 62 -403 115 -735 118 -739 3 -3 70 4 147 17 114 17 141 25
141 38 0 9 -50 341 -111 739 -61 398 -108 729 -106 736 6 16 147 55 236 66 98
11 138 11 231 0z"/>
</g>
</svg>
