<?xml version="1.0" standalone="no"?>
<!DOCTYPE svg PUBLIC "-//W3C//DTD SVG 20010904//EN"
 "http://www.w3.org/TR/2001/REC-SVG-20010904/DTD/svg10.dtd">
<svg version="1.0" xmlns="http://www.w3.org/2000/svg"
 width="512.000000pt" height="512.000000pt" viewBox="0 0 512.000000 512.000000"
 preserveAspectRatio="xMidYMid meet">

<g transform="translate(0.000000,512.000000) scale(0.100000,-0.100000)"
fill="#000000" stroke="none">
<path d="M2452 5101 c-66 -23 -119 -65 -155 -122 -23 -37 -40 -107 -105 -434
l-78 -390 -179 -5 c-167 -5 -184 -7 -229 -30 -27 -14 -66 -44 -87 -68 -58 -66
-69 -112 -69 -283 0 -179 15 -233 85 -302 l44 -43 -58 -135 c-207 -474 -376
-1158 -442 -1789 -19 -174 -17 -533 4 -655 80 -492 337 -777 750 -834 105 -15
1105 -15 1235 0 190 21 351 91 473 206 85 80 127 137 178 239 130 260 167 609
116 1093 -64 606 -237 1292 -446 1765 l-49 110 45 43 c70 69 85 123 85 302 0
172 -11 217 -71 285 -70 79 -106 90 -314 96 l-179 5 -78 390 c-66 327 -82 397
-106 434 -73 119 -230 170 -370 122z m151 -233 c13 -10 37 -115 97 -413 44
-220 82 -410 85 -422 l5 -23 -231 0 -231 0 6 28 c4 15 42 204 85 421 61 307
83 398 97 408 23 16 65 17 87 1z m715 -970 c8 -8 12 -51 12 -129 0 -110 -1
-119 -22 -133 -20 -14 -108 -16 -748 -16 -640 0 -728 2 -748 16 -21 14 -22 23
-22 133 0 78 4 121 12 129 17 17 1499 17 1516 0z m-415 -375 l217 -6 74 -147
c121 -242 212 -488 304 -825 162 -586 246 -1206 212 -1560 -39 -413 -190 -640
-480 -722 -60 -16 -114 -18 -665 -18 -663 0 -667 0 -799 65 -187 92 -304 293
-347 595 -19 130 -17 440 5 625 84 732 313 1527 563 1958 l25 42 336 0 c186 0
435 -3 555 -7z"/>
<path d="M2414 2541 c-64 -18 -143 -60 -175 -92 -11 -11 -19 -33 -19 -52 0
-57 -29 -136 -66 -177 -43 -47 -103 -76 -185 -89 -34 -6 -67 -15 -73 -21 -6
-6 -9 -32 -8 -58 5 -124 94 -1047 102 -1062 5 -10 45 -36 88 -58 277 -145 687
-145 964 0 43 22 83 48 88 58 8 15 97 938 102 1062 1 26 -2 52 -8 58 -6 6 -39
15 -73 21 -82 13 -142 42 -185 89 -37 41 -66 120 -66 177 0 38 -18 59 -85 99
-107 62 -275 81 -401 45z m326 -115 c63 -32 70 -40 70 -81 1 -41 41 -136 78
-182 38 -48 121 -98 192 -116 49 -13 55 -17 53 -38 -1 -13 -21 -235 -44 -494
-35 -382 -45 -472 -58 -482 -23 -18 -156 -69 -231 -90 -93 -25 -387 -25 -480
0 -75 21 -208 72 -231 90 -13 10 -23 100 -58 482 -23 259 -43 481 -44 494 -2
21 4 25 53 38 71 18 154 68 192 116 37 46 77 141 78 182 0 35 6 45 41 67 59
38 111 48 224 45 98 -2 116 -6 165 -31z"/>
<path d="M2280 1811 c-14 -27 -13 -37 6 -55 23 -24 525 -24 548 0 19 18 20 28
6 55 -10 18 -24 19 -280 19 -256 0 -270 -1 -280 -19z"/>
<path d="M2280 1571 c-14 -27 -13 -37 6 -55 13 -14 48 -16 228 -16 223 0 236
3 236 45 0 43 -13 45 -242 45 -205 0 -218 -1 -228 -19z"/>
</g>
</svg>
