<?xml version="1.0" standalone="no"?>
<!DOCTYPE svg PUBLIC "-//W3C//DTD SVG 20010904//EN"
 "http://www.w3.org/TR/2001/REC-SVG-20010904/DTD/svg10.dtd">
<svg version="1.0" xmlns="http://www.w3.org/2000/svg"
 width="512.000000pt" height="512.000000pt" viewBox="0 0 512.000000 512.000000"
 preserveAspectRatio="xMidYMid meet">

<g transform="translate(0.000000,512.000000) scale(0.100000,-0.100000)"
fill="#000000" stroke="none">
<path d="M1533 4665 c-435 -79 -837 -456 -1007 -943 -52 -149 -68 -238 -77
-427 -4 -93 -11 -233 -15 -310 -5 -114 -4 -152 10 -205 23 -92 61 -160 119
-220 102 -102 247 -149 422 -136 49 3 176 10 280 15 105 5 226 17 270 26 393
81 761 328 972 652 245 376 237 836 -21 1172 -67 86 -193 199 -285 255 -89 54
-241 109 -341 125 -86 14 -238 12 -327 -4z m385 -185 c217 -60 413 -223 516
-427 14 -28 38 -91 52 -140 22 -75 26 -107 26 -213 0 -158 -21 -245 -97 -395
-205 -407 -682 -695 -1150 -695 -55 0 -155 -5 -222 -12 -187 -18 -290 7 -365
90 -77 85 -84 146 -61 567 9 167 17 230 37 305 61 231 173 432 336 604 178
188 381 302 597 336 85 13 247 3 331 -20z"/>
<path d="M1128 4063 c-23 -21 -68 -73 -100 -116 -149 -201 -238 -445 -238
-654 0 -68 1 -72 32 -98 25 -21 38 -25 62 -21 56 12 68 34 77 145 17 218 105
419 264 599 64 74 73 115 30 157 -36 37 -76 33 -127 -12z"/>
<path d="M3806 4259 c-259 -64 -495 -274 -632 -563 -47 -100 -82 -220 -89
-306 -23 -272 -26 -385 -15 -444 24 -130 109 -233 225 -273 89 -32 490 -17
640 24 291 79 572 308 687 561 94 207 91 444 -7 631 -157 298 -488 449 -809
370z m349 -178 c125 -44 251 -155 311 -273 123 -242 35 -547 -219 -758 -89
-74 -264 -163 -371 -190 -86 -22 -436 -46 -490 -34 -100 21 -149 85 -150 193
-1 134 16 359 35 440 68 295 317 570 577 636 80 20 229 13 307 -14z"/>
<path d="M3868 3921 c-103 -34 -228 -124 -249 -179 -14 -35 12 -87 50 -100 40
-14 72 -3 122 43 46 41 82 60 142 76 61 15 105 6 164 -35 64 -43 77 -47 114
-34 40 14 63 63 48 105 -11 33 -84 92 -144 118 -62 26 -179 29 -247 6z"/>
<path d="M2507 2484 c-457 -83 -859 -510 -968 -1029 -27 -128 -47 -586 -30
-670 39 -185 174 -311 367 -338 54 -8 110 -8 211 1 76 7 177 12 224 12 415 -1
887 281 1109 660 91 156 134 315 133 490 -1 239 -83 437 -253 611 -218 223
-499 316 -793 263z m331 -180 c84 -21 209 -85 277 -141 264 -215 340 -574 190
-891 -106 -223 -302 -410 -561 -534 -153 -73 -261 -97 -494 -111 -323 -19
-375 -17 -443 17 -44 21 -66 40 -88 75 -46 72 -52 109 -44 271 3 80 8 193 11
251 22 589 516 1115 1017 1083 43 -3 104 -12 135 -20z"/>
<path d="M2948 2004 c-28 -14 -45 -53 -39 -87 1 -10 24 -46 51 -81 58 -77 81
-143 81 -230 0 -118 -42 -218 -141 -337 -68 -80 -75 -111 -36 -155 33 -39 85
-38 127 2 87 82 173 230 204 349 20 78 19 217 -1 286 -40 135 -144 271 -206
269 -7 -1 -25 -7 -40 -16z"/>
</g>
</svg>
