<?xml version="1.0" standalone="no"?>
<!DOCTYPE svg PUBLIC "-//W3C//DTD SVG 20010904//EN"
 "http://www.w3.org/TR/2001/REC-SVG-20010904/DTD/svg10.dtd">
<svg version="1.0" xmlns="http://www.w3.org/2000/svg"
 width="50px" height="50px" viewBox="0 0 512 512"
 preserveAspectRatio="xMidYMid meet">

<g transform="translate(0.000000,512.000000) scale(0.100000,-0.100000)"
fill="currentColor" stroke="none">
<path d="M532 4990 c-105 -28 -167 -64 -252 -150 -87 -86 -122 -147 -150 -256
-20 -76 -20 -117 -20 -2024 0 -1907 0 -1948 20 -2024 28 -109 63 -170 150
-256 86 -87 147 -122 256 -150 76 -20 117 -20 2024 -20 1907 0 1948 0 2024 20
109 28 170 63 256 150 87 86 122 147 150 256 20 76 20 117 20 2024 0 1907 0
1948 -20 2024 -28 109 -63 170 -150 256 -86 87 -147 122 -256 150 -76 20 -116
20 -2028 19 -1889 0 -1953 -1 -2024 -19z m3890 -388 c78 -38 149 -110 187
-192 l26 -55 0 -1795 0 -1795 -27 -58 c-35 -74 -121 -160 -195 -195 l-58 -27
-1795 0 -1795 0 -57 28 c-84 41 -152 107 -190 185 l-33 67 0 1795 0 1795 26
56 c46 98 142 183 242 214 34 11 363 13 1822 12 l1780 -2 67 -33z"/>
<path d="M1971 4233 c-26 -32 -35 -65 -26 -92 7 -23 53 -51 84 -51 11 0 27
-10 35 -22 14 -19 16 -71 16 -366 l0 -343 25 -24 c37 -38 95 -35 129 6 l26 31
0 415 0 415 -29 29 c-29 28 -32 29 -135 29 -101 0 -105 -1 -125 -27z"/>
<path d="M2889 4241 c-13 -11 -87 -143 -164 -295 l-140 -276 0 -88 c0 -100 18
-145 83 -210 145 -145 392 -102 482 82 46 97 34 226 -30 313 -38 52 -109 99
-160 108 -69 12 -69 22 -1 149 76 142 80 190 20 221 -38 20 -62 19 -90 -4z
m50 -546 c87 -44 76 -193 -17 -232 -103 -43 -201 82 -147 187 28 55 105 76
164 45z"/>
<path d="M2376 2944 c-268 -65 -461 -337 -417 -589 35 -202 142 -336 527 -662
204 -172 255 -224 285 -288 23 -50 24 -126 3 -172 -23 -47 -93 -98 -155 -113
-107 -26 -207 8 -301 102 -83 83 -111 98 -184 98 -53 0 -69 -5 -110 -32 -90
-61 -119 -161 -74 -254 33 -67 163 -184 258 -232 118 -59 204 -75 365 -70 109
4 145 9 210 31 183 63 318 193 378 365 27 74 36 238 19 324 -34 178 -122 290
-439 562 -365 314 -403 357 -387 437 27 137 224 164 366 50 65 -52 98 -63 165
-59 49 3 70 10 100 32 69 53 96 127 75 207 -25 95 -202 223 -365 264 -74 19
-239 18 -319 -1z"/>
</g>
</svg>
