<?xml version="1.0" standalone="no"?>
<!DOCTYPE svg PUBLIC "-//W3C//DTD SVG 20010904//EN"
 "http://www.w3.org/TR/2001/REC-SVG-20010904/DTD/svg10.dtd">
<svg version="1.0" xmlns="http://www.w3.org/2000/svg"
 width="1024.000000pt" height="1024.000000pt" viewBox="0 0 1024.000000 1024.000000"
 preserveAspectRatio="xMidYMid meet">
<style>
  path {
    fill: #000000;
  }
  @media (prefers-color-scheme: dark) {
    path { fill: #ffffff; }
  }
</style>

<g transform="translate(0.000000,1024.000000) scale(0.100000,-0.100000)"
fill="currentColor" stroke="none">
<path d="M4850 9814 c-245 -31 -454 -110 -625 -235 -98 -72 -122 -82 -278
-122 -220 -57 -330 -120 -469 -266 -86 -90 -147 -190 -182 -296 -40 -123 -57
-311 -37 -413 l8 -42 -141 -94 c-182 -121 -282 -202 -435 -351 -446 -434 -744
-950 -896 -1550 -72 -286 -105 -551 -105 -850 0 -521 110 -982 361 -1512 59
-125 59 -127 59 -217 0 -137 20 -199 106 -324 38 -56 42 -65 33 -95 -12 -41
-45 -243 -60 -374 l-13 -101 -135 -4 c-125 -3 -141 -5 -193 -31 -67 -33 -111
-80 -147 -157 l-26 -55 0 -845 0 -845 27 -57 c34 -73 103 -142 176 -176 l57
-27 3180 0 3180 0 67 33 c107 52 176 145 198 264 7 37 10 332 8 845 l-3 788
-24 59 c-29 72 -95 142 -166 175 -45 21 -67 24 -225 27 l-175 5 -13 52 c-7 29
-28 117 -47 197 -19 80 -48 187 -65 238 l-31 93 29 37 c59 74 190 282 260 413
264 495 402 1044 402 1607 0 531 -111 1023 -334 1477 -194 393 -425 696 -756
993 l-95 85 -12 86 c-41 283 -199 538 -430 695 -61 41 -85 66 -145 153 -161
233 -334 340 -701 430 -164 40 -192 51 -330 122 -152 77 -261 118 -392 147
-69 15 -390 27 -465 18z m410 -139 c116 -20 223 -57 332 -116 193 -102 232
-118 364 -144 351 -69 522 -171 687 -406 53 -76 85 -109 169 -174 127 -99 202
-188 267 -314 71 -139 99 -244 107 -399 3 -72 16 -173 29 -232 34 -155 37
-176 36 -269 -2 -205 -90 -359 -251 -440 -72 -36 -213 -72 -227 -58 -3 3 1 46
8 94 15 104 16 263 2 313 l-10 35 71 0 c59 0 82 5 139 32 37 18 67 34 67 36 0
3 -37 2 -83 0 -73 -5 -90 -2 -147 20 -71 29 -76 34 -157 157 -30 47 -91 126
-134 176 l-78 92 58 11 c32 6 79 25 105 42 44 29 116 104 116 120 0 4 -26 -8
-57 -27 -75 -45 -170 -74 -242 -74 -55 1 -58 2 -161 83 -58 45 -150 109 -205
142 -55 32 -102 60 -104 62 -2 1 24 27 57 58 59 54 115 130 141 189 10 24 1
19 -55 -34 -70 -65 -158 -127 -213 -150 -29 -12 -38 -10 -109 22 -42 19 -102
43 -132 54 -30 10 -56 19 -58 20 -2 1 13 23 32 48 42 55 64 125 71 221 5 69 5
70 -8 29 -41 -121 -147 -254 -204 -254 -13 0 -68 11 -121 24 -192 49 -308 61
-577 61 -197 0 -270 -4 -344 -18 -52 -10 -102 -15 -112 -12 -46 15 -119 173
-135 293 -4 29 -10 55 -14 57 -13 8 -21 -156 -11 -215 5 -31 21 -82 35 -114
15 -33 25 -60 24 -61 -2 -1 -31 -12 -66 -25 -34 -12 -88 -38 -119 -56 -30 -19
-61 -34 -68 -34 -19 0 -112 87 -146 137 -17 24 -33 42 -36 39 -9 -9 62 -150
95 -187 l31 -36 -55 -58 c-67 -71 -123 -183 -160 -322 l-27 -102 -59 31 c-99
53 -186 170 -204 273 l-7 40 29 -27 c16 -15 49 -36 74 -47 46 -20 140 -38 140
-27 0 3 -23 17 -51 31 -152 78 -222 228 -205 439 21 246 225 494 479 580 27 9
92 26 145 37 116 25 150 42 264 126 152 112 296 174 483 207 110 19 387 20
495 1z m-90 -1079 c276 -48 572 -152 795 -278 211 -119 372 -255 521 -441 115
-143 173 -247 201 -361 15 -61 15 -82 4 -185 -10 -91 -59 -372 -75 -426 -1 -5
-22 29 -47 75 -112 217 -360 473 -619 641 -282 183 -684 333 -1056 396 -166
28 -550 25 -692 -6 -173 -36 -354 -113 -454 -192 l-38 -31 34 95 c19 53 51
150 71 217 49 166 69 205 142 278 104 102 313 194 518 227 125 20 561 14 695
-9z m-1870 -325 c0 -28 33 -100 80 -175 48 -76 122 -145 192 -178 40 -19 48
-27 43 -43 -23 -78 -36 -171 -35 -254 1 -60 -4 -119 -14 -156 -32 -119 -12
-288 46 -382 11 -18 25 -72 33 -120 7 -49 18 -115 25 -148 11 -55 10 -68 -13
-155 -54 -201 -62 -256 -61 -435 1 -158 3 -178 32 -280 17 -60 51 -186 76
-280 82 -302 118 -394 207 -528 22 -32 36 -63 33 -69 -4 -6 -3 -8 3 -5 9 6 31
-14 78 -72 11 -14 14 -21 6 -16 -10 5 -12 4 -7 -4 4 -6 12 -9 18 -5 13 8 69
-46 61 -59 -3 -6 -1 -7 5 -3 15 9 172 -132 172 -154 0 -20 -113 -95 -200 -133
-30 -14 -109 -43 -175 -67 -141 -49 -260 -104 -333 -154 -36 -26 -54 -33 -57
-24 -82 228 -84 234 -62 222 7 -4 9 -3 4 2 -5 5 -12 8 -15 8 -9 -2 -65 149
-173 471 -50 149 -122 360 -160 471 -69 200 -99 319 -99 397 0 28 14 69 45
131 62 128 75 193 69 346 -8 180 -8 188 -15 185 -3 -2 -16 28 -28 68 -56 174
-178 344 -319 444 -68 49 -182 93 -241 93 -96 0 -196 -70 -254 -177 -105 -197
-84 -573 45 -791 69 -117 216 -251 348 -317 84 -41 137 -98 160 -170 17 -55
87 -253 106 -299 6 -16 4 -18 -10 -13 -28 11 -106 -29 -158 -80 -72 -71 -101
-145 -105 -273 -3 -86 0 -122 20 -201 l24 -97 -106 -4 c-189 -9 -270 -60 -306
-192 -14 -51 -26 -73 -47 -89 -53 -40 -69 -78 -77 -187 -6 -88 -13 -122 -25
-109 -8 9 -101 252 -137 359 -78 233 -137 522 -160 780 -18 203 -6 545 25 742
55 343 147 640 291 941 28 60 50 95 57 91 7 -4 8 -2 4 5 -15 23 148 280 291
458 103 130 357 388 372 379 7 -5 10 -2 9 6 -2 7 3 12 10 10 8 -1 11 2 8 7 -9
13 355 296 387 300 4 1 7 -8 7 -18z m4304 -592 c-4 -7 -3 -10 3 -6 20 13 191
-207 298 -382 82 -136 158 -288 149 -302 -4 -7 -3 -10 3 -6 22 14 145 -300
202 -514 78 -296 105 -501 105 -824 0 -491 -69 -872 -231 -1265 -82 -200 -228
-471 -331 -614 l-40 -56 -39 83 c-22 45 -61 115 -87 155 -25 40 -43 78 -40 84
4 6 3 8 -3 5 -5 -3 -27 16 -47 43 -21 28 -84 94 -140 147 -55 53 -100 99 -99
103 1 4 -3 7 -10 7 -7 0 -33 14 -58 32 l-46 33 14 41 c38 108 26 239 -33 367
l-35 75 22 60 c12 33 56 155 99 270 42 116 106 294 141 398 50 146 68 189 84
193 66 21 76 39 184 329 32 88 102 270 154 405 52 135 98 262 102 283 13 70
-2 125 -51 177 -24 26 -40 51 -36 55 4 5 2 5 -4 2 -7 -4 -28 0 -48 8 -111 47
-235 -23 -272 -153 -43 -156 -91 -314 -179 -592 -52 -168 -98 -322 -102 -343
-3 -22 0 -55 7 -78 13 -39 11 -48 -119 -437 -73 -218 -142 -414 -153 -437 -30
-59 -77 -104 -122 -116 -74 -20 -183 -115 -223 -194 -9 -16 -16 -31 -18 -32
-3 -5 -209 108 -256 140 -45 30 -47 35 -54 91 -8 71 -46 160 -85 201 l-29 30
68 0 c59 0 72 4 106 29 21 16 49 49 64 73 14 25 45 67 67 93 40 47 84 140 84
180 0 18 -1 18 -46 -2 -41 -18 -51 -19 -90 -8 -46 13 -93 60 -113 112 -8 22
-6 25 39 41 58 21 113 78 155 163 16 33 53 93 82 135 94 136 145 274 164 447
14 121 0 250 -33 315 -17 34 -19 53 -15 111 3 39 10 87 16 107 l11 36 76 7
c270 25 476 207 551 486 30 112 18 353 -24 478 -3 9 56 -45 132 -120 89 -89
134 -141 129 -149z m-2948 222 c173 -72 264 -123 474 -261 124 -81 252 -162
285 -180 33 -18 65 -37 72 -42 6 -5 61 -31 121 -57 68 -30 158 -81 234 -134
l124 -85 51 -139 c80 -216 122 -351 138 -443 22 -126 41 -180 82 -244 l38 -57
5 35 5 36 38 -35 c32 -29 37 -40 37 -78 0 -30 -10 -64 -31 -104 -19 -37 -29
-71 -27 -89 3 -26 8 -21 55 61 47 80 53 96 53 147 0 42 -7 72 -27 112 l-27 55
19 35 c44 81 144 172 165 149 19 -21 32 -107 26 -165 -5 -51 -4 -59 6 -43 18
30 21 163 6 215 -16 52 -38 61 -87 35 l-31 -16 0 30 c0 35 43 76 90 86 79 17
116 -70 107 -250 -9 -170 -53 -314 -129 -421 -18 -26 -55 -90 -83 -143 -58
-110 -109 -156 -171 -154 -62 2 -95 46 -104 138 l-6 60 -8 -50 c-10 -67 -122
-425 -156 -502 -89 -197 -236 -349 -454 -468 -60 -34 -68 -36 -62 -17 6 17 3
19 -14 15 -11 -3 -23 -9 -26 -14 -3 -5 -15 -9 -28 -9 -12 0 -26 -4 -31 -9 -6
-5 -21 -11 -35 -13 -14 -2 -29 -13 -35 -25 -5 -12 -23 -27 -40 -34 -16 -6 -64
-28 -105 -49 -137 -70 -213 -92 -335 -97 -124 -6 -270 18 -351 57 -26 13 -107
82 -191 161 -80 77 -149 139 -154 139 -14 0 -140 154 -187 229 -61 99 -104
210 -153 399 -23 86 -51 193 -64 237 -56 194 -58 406 -6 662 17 84 38 219 46
300 27 259 92 589 132 667 42 84 193 267 277 338 58 49 82 54 287 56 108 2
121 0 185 -27z m3119 -1042 c20 -38 12 -79 -22 -113 -79 -79 -162 29 -92 119
16 19 30 25 59 25 34 0 42 -4 55 -31z m-4816 -1535 c28 -36 39 -104 50 -314
12 -222 30 -305 117 -520 36 -89 38 -102 39 -201 0 -63 -4 -112 -11 -120 -6
-8 -14 -39 -17 -69 -12 -101 -46 -213 -87 -280 -40 -66 -59 -128 -60 -188 0
-19 -9 -45 -20 -59 -11 -14 -20 -33 -20 -43 0 -9 -11 -34 -25 -54 -14 -20 -25
-39 -25 -42 0 -8 74 8 88 19 7 5 14 8 15 6 2 -2 11 -44 21 -94 10 -49 34 -155
53 -235 19 -80 36 -149 36 -153 1 -4 -189 -10 -422 -12 l-423 -5 6 58 c10 79
44 286 59 350 12 53 20 64 31 37 9 -24 70 -45 128 -45 l53 1 -32 17 c-44 23
-145 121 -138 133 3 5 0 7 -7 4 -15 -6 -57 55 -120 171 l-41 76 -3 166 c-2
144 0 173 17 217 12 33 19 75 19 125 0 111 13 145 77 206 49 46 57 59 64 104
10 65 18 75 82 97 40 14 82 18 182 18 119 -1 135 -3 187 -27 77 -35 142 -103
184 -190 37 -80 43 -132 19 -179 -15 -28 -16 -29 -40 -13 -14 9 -22 21 -18 27
3 6 1 7 -5 3 -7 -4 -33 7 -58 25 -86 59 -176 83 -349 93 -86 5 -89 5 -61 -10
16 -9 82 -29 148 -45 180 -44 271 -97 317 -184 35 -66 18 -194 -25 -187 -16 2
-16 1 -4 -7 8 -5 11 -13 8 -17 -4 -4 -32 16 -61 43 -59 53 -89 65 -223 88 -49
9 -124 27 -168 41 -43 14 -80 23 -82 21 -5 -5 59 -48 111 -74 22 -11 87 -32
145 -47 149 -38 211 -87 242 -189 10 -34 9 -44 -8 -76 -26 -50 -54 -51 -119
-7 -64 45 -89 52 -219 66 -96 11 -137 18 -181 36 l-20 7 20 -22 c31 -36 87
-60 212 -92 135 -34 140 -37 182 -84 63 -72 29 -165 -59 -165 -27 0 -43 5 -46
15 -5 12 -24 15 -88 15 -51 0 -109 8 -154 20 -85 24 -93 24 -67 4 49 -38 119
-65 183 -71 41 -4 77 -13 94 -25 41 -28 108 -34 153 -12 61 29 109 128 88 184
-10 26 -9 28 17 34 17 3 40 21 57 42 25 33 28 46 28 108 0 60 3 73 23 93 54
54 79 177 52 248 -9 23 -6 32 19 60 65 74 65 151 0 276 -53 102 -143 188 -228
219 l-59 22 -20 66 c-33 104 -45 218 -32 299 13 79 43 135 99 186 50 45 90 49
120 11z m3006 -379 l8 -110 -46 -60 c-68 -90 -200 -212 -305 -283 -77 -51
-116 -69 -225 -103 -162 -52 -219 -79 -275 -133 -54 -50 -88 -115 -111 -209
-10 -40 -23 -72 -29 -71 -7 1 -29 2 -50 3 l-38 1 -17 106 c-29 179 -66 235
-230 346 -76 51 -92 67 -113 111 -31 67 -31 89 -1 82 217 -51 362 -45 505 21
78 35 181 104 221 148 14 14 28 26 33 26 5 0 -15 -22 -43 -50 -28 -27 -55 -50
-60 -50 -5 0 -9 -4 -9 -10 0 -5 -6 -10 -14 -10 -8 0 -16 -4 -18 -9 -6 -16
-158 -81 -226 -97 -85 -20 -203 -18 -315 5 -48 10 -87 17 -87 15 0 -17 42 -93
55 -97 9 -4 14 -11 11 -16 -9 -13 22 -34 39 -27 9 3 14 2 12 -2 -4 -7 28 -42
38 -42 3 0 12 0 21 0 8 0 13 -4 10 -8 -3 -5 17 -7 44 -4 32 3 55 0 65 -8 19
-15 125 -7 198 15 67 20 167 66 167 76 0 5 5 9 10 9 11 0 88 52 151 101 20 16
40 29 44 29 14 0 252 248 257 267 5 18 3 19 -26 9 -17 -7 -41 -17 -52 -23 -21
-12 -34 -8 -34 8 0 5 17 11 38 15 80 14 251 136 332 238 l45 57 7 -78 c3 -43
9 -127 13 -188z m202 30 c37 -70 -17 -365 -98 -532 -63 -131 -295 -306 -517
-389 -70 -27 -272 -69 -375 -78 l-68 -7 6 38 c4 21 22 70 41 109 43 90 75 113
233 164 211 69 338 146 476 291 148 156 200 253 218 407 l11 95 29 -34 c16
-19 35 -47 44 -64z m-652 -85 c-3 -5 -14 -10 -23 -10 -15 0 -15 2 -2 10 20 13
33 13 25 0z m-2227 -540 l50 -145 -37 -40 c-21 -22 -46 -51 -55 -65 -17 -24
-17 -24 -9 30 4 30 8 105 7 165 -1 102 -4 118 -43 230 -35 101 -92 310 -91
333 1 4 29 -76 64 -178 35 -102 87 -250 114 -330z m1116 254 c14 -105 61 -166
208 -271 92 -65 142 -123 158 -182 5 -20 16 -80 24 -134 8 -54 17 -101 21
-105 4 -4 88 -8 187 -10 453 -9 714 79 971 327 42 41 77 71 77 68 0 -4 -9 -40
-19 -80 -38 -141 -143 -589 -165 -705 l-23 -117 -109 -8 c-211 -15 -911 9
-1254 44 -136 13 -434 50 -438 53 -9 10 171 572 245 763 l28 73 55 -78 c65
-91 151 -160 285 -226 110 -55 150 -61 51 -9 -123 66 -233 187 -295 325 -38
84 -51 150 -51 260 0 88 1 91 19 74 10 -9 21 -37 25 -62z m2307 -108 c320
-145 411 -196 544 -303 182 -148 364 -435 460 -728 44 -134 125 -442 125 -476
0 -18 -15 -19 -561 -19 -529 0 -560 1 -555 18 2 9 17 73 31 142 81 384 160
590 324 843 35 54 61 100 59 103 -3 2 -27 -13 -54 -34 -85 -67 -159 -170 -239
-330 -70 -141 -105 -244 -171 -497 -30 -115 -57 -218 -60 -227 -5 -16 -19 -18
-103 -18 l-97 0 -13 76 c-7 42 -26 131 -43 198 -27 108 -29 132 -24 221 8 140
48 398 101 649 25 117 55 270 67 339 13 70 24 127 24 127 1 0 84 -38 185 -84z
m-2772 -197 c-97 -210 -191 -445 -258 -649 -42 -124 -66 -178 -123 -272 -39
-65 -72 -117 -74 -115 -6 5 25 367 41 484 9 62 24 147 35 189 11 43 18 79 17
81 -9 8 -89 -183 -121 -289 -49 -161 -80 -358 -111 -696 l-7 -73 -51 3 -51 3
-28 110 c-73 288 -100 430 -102 526 l-1 95 41 50 c22 27 64 84 93 126 132 198
328 397 459 466 66 35 288 128 313 131 4 1 -29 -76 -72 -170z m466 -1658 c34
-17 71 -41 83 -54 l23 -24 -49 -54 -49 -53 -23 22 c-59 55 -159 70 -228 35
-60 -32 -94 -89 -100 -171 -8 -112 30 -185 113 -223 70 -32 133 -24 208 28
l38 26 49 -48 50 -49 -27 -28 c-15 -16 -52 -41 -83 -56 -48 -24 -67 -27 -150
-27 -82 1 -103 4 -156 29 -123 56 -185 151 -192 297 -7 147 41 257 140 323
110 73 240 82 353 27z m661 7 c120 -44 204 -165 212 -307 7 -126 -29 -221
-114 -303 -109 -104 -306 -114 -440 -23 -216 148 -196 506 35 624 81 42 209
45 307 9z m794 -1 c30 -14 68 -37 83 -51 l28 -26 -48 -55 c-47 -53 -48 -54
-68 -36 -67 61 -162 72 -237 28 -133 -78 -129 -310 6 -379 74 -38 170 -23 234
35 l23 21 51 -51 c46 -47 50 -53 37 -69 -29 -36 -104 -74 -176 -90 -63 -14
-84 -14 -136 -4 -124 24 -208 85 -253 182 -26 57 -29 73 -29 168 0 92 3 112
26 160 47 99 115 158 218 187 68 19 175 10 241 -20z m-3260 -262 l0 -285 145
0 145 0 0 -70 0 -70 -220 0 -220 0 0 355 0 355 75 0 75 0 0 -285z m848 43 c50
-134 109 -294 131 -355 l40 -113 -80 0 c-55 0 -81 4 -84 13 -2 6 -14 38 -25
70 l-22 58 -130 -3 -131 -3 -25 -67 -25 -68 -79 0 c-72 0 -79 2 -73 18 3 9 40
109 80 222 82 231 163 449 171 462 3 4 40 8 83 8 l79 0 90 -242z m2802 -108
l0 -350 -75 0 -75 0 0 350 0 350 75 0 75 0 0 -350z m354 263 c32 -49 102 -151
155 -227 l96 -140 3 227 2 227 75 0 75 0 0 -350 0 -351 -77 3 -77 3 -70 100
c-38 55 -107 154 -153 219 l-83 119 0 -222 0 -221 -75 0 -75 0 0 350 0 350 73
0 74 0 57 -87z m968 -48 c27 -71 82 -222 122 -335 41 -113 77 -213 81 -222 6
-16 -1 -18 -73 -18 l-79 0 -25 68 -25 67 -133 0 -134 0 -20 -62 -20 -63 -81 0
-82 0 117 323 c65 177 123 335 129 350 11 28 11 28 93 25 l81 -3 49 -130z
m-3392 -825 l0 -70 -145 0 -146 0 3 -72 3 -73 128 -3 127 -3 0 -64 0 -65 -130
0 -130 0 0 -70 0 -70 155 0 155 0 0 -64 c0 -35 -4 -66 -10 -68 -5 -1 -109 -2
-230 0 l-220 3 0 338 c0 186 3 341 7 344 3 4 102 7 220 7 l213 0 0 -70z m1010
66 c0 -2 -16 -48 -36 -102 -20 -55 -69 -196 -109 -314 -41 -118 -79 -230 -85
-247 l-12 -33 -88 0 -87 0 -58 163 c-31 89 -86 244 -121 345 l-63 182 78 0 77
0 16 -47 c9 -27 48 -138 86 -247 l69 -199 17 49 c10 27 46 132 81 234 34 102
66 193 70 203 6 14 20 17 86 17 43 0 79 -2 79 -4z m1039 -13 c98 -31 161 -119
161 -224 0 -95 -44 -168 -114 -192 -6 -2 22 -60 62 -129 40 -70 72 -129 72
-132 0 -3 -36 -6 -80 -6 -91 0 -75 -13 -163 140 l-55 95 -46 3 -46 3 0 -120 0
-121 -75 0 -75 0 0 350 0 350 154 0 c116 0 166 -4 205 -17z m774 -21 c38 -19
79 -49 97 -70 152 -184 95 -472 -113 -568 -55 -26 -73 -29 -157 -28 -82 0
-103 4 -151 27 -67 32 -142 109 -171 174 -28 64 -35 183 -14 255 32 112 115
198 225 233 30 10 76 14 132 12 74 -3 96 -8 152 -35z m-3557 -5 c74 -34 125
-84 156 -152 32 -72 32 -225 0 -307 -27 -68 -81 -126 -148 -159 -45 -22 -62
-24 -231 -27 l-183 -4 0 342 0 342 173 -4 c164 -3 175 -4 233 -31z m2282 -34
l-3 -68 -142 -3 -143 -3 0 -71 0 -71 125 5 125 5 0 -69 0 -68 -125 0 -125 0 0
-70 0 -70 150 0 151 0 -3 -67 -3 -68 -222 -3 -223 -2 0 345 0 345 220 0 221 0
-3 -67z"/>
<path d="M3150 8170 c0 -5 5 -10 11 -10 5 0 7 5 4 10 -3 6 -8 10 -11 10 -2 0
-4 -4 -4 -10z"/>
<path d="M3321 8125 c1 -19 18 -51 18 -35 0 8 -4 22 -9 30 -5 8 -9 11 -9 5z"/>
<path d="M3038 8083 c6 -2 18 -2 25 0 6 3 1 5 -13 5 -14 0 -19 -2 -12 -5z"/>
<path d="M3360 8055 c7 -8 17 -15 22 -15 6 0 5 7 -2 15 -7 8 -17 15 -22 15 -6
0 -5 -7 2 -15z"/>
<path d="M2995 8050 c-3 -5 -1 -10 4 -10 6 0 11 -7 11 -16 0 -8 -4 -12 -10 -9
-5 3 -10 1 -10 -5 0 -6 -4 -8 -10 -5 -6 3 -10 -4 -10 -17 -1 -26 -24 -61 -33
-51 -4 3 -7 1 -7 -5 0 -6 -9 -14 -20 -17 -24 -8 -25 -21 -5 -41 22 -23 19 -65
-5 -71 -11 -3 -20 -14 -20 -24 0 -12 -7 -19 -20 -19 -13 0 -20 -7 -20 -20 0
-13 7 -20 20 -20 17 0 20 -7 20 -40 l0 -40 40 0 c33 0 40 3 40 20 0 11 5 20
10 20 6 0 10 14 10 30 0 27 3 30 30 30 l30 0 0 -110 0 -110 -50 0 c-40 0 -50
-3 -50 -16 0 -24 30 -43 68 -44 29 0 32 3 32 30 l0 30 80 0 80 0 0 -60 0 -60
80 0 c73 0 80 -2 80 -20 0 -13 -7 -20 -20 -20 -13 0 -20 -7 -20 -20 0 -17 7
-20 40 -20 33 0 40 3 40 20 0 11 5 20 10 20 6 0 10 -9 10 -20 0 -13 7 -20 20
-20 13 0 20 7 20 20 0 11 -4 20 -10 20 -5 0 -10 9 -10 20 0 17 -7 20 -40 20
l-40 0 0 60 c0 53 -2 60 -20 60 -17 0 -20 7 -20 40 0 33 3 40 20 40 11 0 20 5
20 10 0 6 14 10 30 10 27 0 30 3 30 30 0 17 5 30 10 30 6 0 10 18 10 40 0 22
-4 40 -10 40 -5 0 -10 18 -10 40 0 22 5 40 10 40 6 0 10 9 10 20 0 15 7 20 25
20 16 0 25 -6 25 -15 0 -18 27 -20 32 -3 6 18 -22 44 -56 52 -15 4 -26 10 -23
13 12 11 -22 33 -52 33 -17 0 -31 5 -31 10 0 6 -18 10 -40 10 -22 0 -40 -4
-40 -10 0 -5 -18 -10 -40 -10 -33 0 -40 3 -40 20 0 17 -7 20 -44 20 -39 0 -44
-2 -39 -20 4 -15 0 -20 -16 -20 -11 0 -21 -4 -21 -10 0 -5 -4 -10 -10 -10 -5
0 -10 7 -10 15 0 8 -6 25 -12 36 -10 17 -10 23 0 26 19 7 14 23 -8 23 -11 0
-20 5 -20 10 0 6 -4 10 -9 10 -6 0 -13 -4 -16 -10z m-32 -190 c-3 -11 -9 -20
-14 -20 -5 0 -9 9 -9 20 0 11 6 20 14 20 9 0 12 -7 9 -20z m-23 -160 c0 -11
-4 -20 -10 -20 -5 0 -10 9 -10 20 0 11 5 20 10 20 6 0 10 -9 10 -20z"/>
<path d="M2806 7892 c-3 -4 4 -9 15 -9 23 -2 25 3 4 10 -8 4 -16 3 -19 -1z"/>
<path d="M2742 7830 c-27 -25 -27 -26 -3 -26 11 0 17 5 14 13 -3 7 6 17 18 22
14 6 18 10 8 10 -8 1 -25 -8 -37 -19z"/>
<path d="M3524 7839 c-7 -12 15 -31 28 -23 9 6 -1 34 -12 34 -5 0 -12 -5 -16
-11z"/>
<path d="M3571 7804 c0 -11 3 -14 6 -6 3 7 2 16 -1 19 -3 4 -6 -2 -5 -13z"/>
<path d="M2715 7770 c-3 -5 -1 -10 4 -10 6 0 11 5 11 10 0 6 -2 10 -4 10 -3 0
-8 -4 -11 -10z"/>
<path d="M3561 7714 c0 -11 3 -14 6 -6 3 7 2 16 -1 19 -3 4 -6 -2 -5 -13z"/>
<path d="M2760 7700 c0 -11 5 -20 10 -20 6 0 10 9 10 20 0 11 -4 20 -10 20 -5
0 -10 -9 -10 -20z"/>
<path d="M3561 7634 c0 -11 3 -14 6 -6 3 7 2 16 -1 19 -3 4 -6 -2 -5 -13z"/>
<path d="M3511 7415 c0 -16 3 -24 6 -16 5 11 7 11 14 0 5 -8 9 -9 9 -3 0 5 -7
19 -15 30 -14 18 -14 18 -14 -11z"/>
<path d="M3010 7401 c0 -6 5 -13 10 -16 6 -3 10 1 10 9 0 9 -4 16 -10 16 -5 0
-10 -4 -10 -9z"/>
<path d="M3522 7350 c0 -19 2 -27 5 -17 2 9 2 25 0 35 -3 9 -5 1 -5 -18z"/>
<path d="M3190 7241 c0 -5 7 -15 17 -22 15 -13 15 -12 4 9 -12 23 -21 28 -21
13z"/>
<path d="M3532 7210 c0 -14 2 -19 5 -12 2 6 2 18 0 25 -3 6 -5 1 -5 -13z"/>
<path d="M2320 7149 c0 -5 5 -7 10 -4 6 3 10 8 10 11 0 2 -4 4 -10 4 -5 0 -10
-5 -10 -11z"/>
<path d="M3320 7121 c0 -5 5 -13 10 -16 6 -3 10 -2 10 4 0 5 -4 13 -10 16 -5
3 -10 2 -10 -4z"/>
<path d="M3564 7100 c0 -13 4 -16 10 -10 7 7 7 13 0 20 -6 6 -10 3 -10 -10z"/>
<path d="M3350 7090 c0 -5 5 -10 11 -10 5 0 7 5 4 10 -3 6 -8 10 -11 10 -2 0
-4 -4 -4 -10z"/>
<path d="M3600 7024 c0 -8 5 -12 10 -9 6 3 10 10 10 16 0 5 -4 9 -10 9 -5 0
-10 -7 -10 -16z"/>
<path d="M2146 6984 c-4 -9 -4 -19 -1 -22 2 -3 7 3 11 12 4 9 4 19 1 22 -2 3
-7 -3 -11 -12z"/>
<path d="M2101 6864 c0 -11 3 -14 6 -6 3 7 2 16 -1 19 -3 4 -6 -2 -5 -13z"/>
<path d="M3057 6776 c3 -16 10 -23 19 -19 13 5 12 8 -2 24 -22 24 -22 24 -17
-5z"/>
<path d="M2173 6720 c0 -25 2 -35 4 -22 2 12 2 32 0 45 -2 12 -4 2 -4 -23z"/>
<path d="M3092 6698 c7 -13 12 -26 13 -30 1 -19 15 -18 15 1 0 12 -6 29 -14
37 -22 21 -28 17 -14 -8z"/>
<path d="M2026 6664 c-11 -30 -6 -44 17 -44 16 0 18 3 8 9 -9 6 -10 11 -2 15
15 10 14 23 -3 29 -8 3 -17 -1 -20 -9z"/>
<path d="M1982 6559 c-5 -19 -6 -38 -3 -44 3 -5 9 8 12 30 9 50 3 58 -9 14z"/>
<path d="M3142 6550 c0 -19 2 -27 5 -17 2 9 2 25 0 35 -3 9 -5 1 -5 -18z"/>
<path d="M3446 6536 c3 -9 11 -16 16 -16 13 0 5 23 -10 28 -7 2 -10 -2 -6 -12z"/>
<path d="M3526 6485 c4 -8 11 -15 16 -15 6 0 5 6 -2 15 -7 8 -14 15 -16 15 -2
0 -1 -7 2 -15z"/>
<path d="M3582 6425 c0 -16 2 -22 5 -12 2 9 2 23 0 30 -3 6 -5 -1 -5 -18z"/>
<path d="M2200 6419 c0 -5 5 -7 10 -4 6 3 10 8 10 11 0 2 -4 4 -10 4 -5 0 -10
-5 -10 -11z"/>
<path d="M2080 6380 c0 -5 5 -10 10 -10 6 0 10 5 10 10 0 6 -4 10 -10 10 -5 0
-10 -4 -10 -10z"/>
<path d="M3180 6340 c19 -13 30 -13 30 0 0 6 -10 10 -22 10 -19 0 -20 -2 -8
-10z"/>
<path d="M3571 6314 c0 -11 3 -14 6 -6 3 7 2 16 -1 19 -3 4 -6 -2 -5 -13z"/>
<path d="M3513 6240 c0 -30 2 -43 4 -27 2 15 2 39 0 55 -2 15 -4 2 -4 -28z"/>
<path d="M3563 6220 c0 -25 2 -35 4 -22 2 12 2 32 0 45 -2 12 -4 2 -4 -23z"/>
<path d="M3111 6163 c-1 -6 -4 -20 -7 -30 -5 -17 -5 -17 6 0 6 10 9 23 6 30
-3 9 -5 9 -5 0z"/>
<path d="M3560 6145 c1 -26 2 -28 11 -12 8 14 8 22 0 30 -8 8 -11 3 -11 -18z"/>
<path d="M3572 6100 c0 -8 4 -26 8 -40 6 -20 8 -21 8 -5 0 11 -3 29 -8 40 -5
12 -8 14 -8 5z"/>
<path d="M3275 6040 c3 -5 10 -10 16 -10 5 0 9 5 9 10 0 6 -7 10 -16 10 -8 0
-12 -4 -9 -10z"/>
<path d="M3395 6000 c-19 -8 -19 -9 3 -9 12 -1 22 4 22 9 0 6 -1 10 -2 9 -2 0
-12 -4 -23 -9z"/>
<path d="M2415 5760 c-13 -6 -15 -9 -5 -9 8 0 22 4 30 9 18 12 2 12 -25 0z"/>
<path d="M2600 5734 c36 -8 100 -9 100 -2 0 5 -26 7 -57 7 -32 -1 -51 -3 -43
-5z"/>
<path d="M2600 5660 c0 -13 -7 -20 -20 -20 -13 0 -20 -7 -20 -20 0 -17 7 -20
40 -20 33 0 40 3 40 20 0 11 -4 20 -10 20 -5 0 -10 9 -10 20 0 11 -4 20 -10
20 -5 0 -10 -9 -10 -20z"/>
<path d="M3343 5653 c9 -2 23 -2 30 0 6 3 -1 5 -18 5 -16 0 -22 -2 -12 -5z"/>
<path d="M3105 5620 c3 -5 8 -10 11 -10 2 0 4 5 4 10 0 6 -5 10 -11 10 -5 0
-7 -4 -4 -10z"/>
<path d="M3603 5613 c9 -2 23 -2 30 0 6 3 -1 5 -18 5 -16 0 -22 -2 -12 -5z"/>
<path d="M3277 5580 c4 -14 0 -20 -12 -20 -36 0 -55 -39 -55 -112 0 -54 3 -68
15 -68 8 0 15 -9 15 -20 0 -13 7 -20 20 -20 22 0 27 16 8 23 -8 2 -9 8 -4 13
5 5 11 4 13 -3 6 -15 83 -18 83 -3 0 6 18 10 40 10 28 0 40 -4 40 -14 0 -9 7
-12 20 -9 15 4 20 0 20 -16 0 -14 6 -21 20 -21 19 0 20 7 20 120 l0 120 -48 0
c-36 0 -51 5 -62 20 -12 16 -26 20 -76 20 -57 0 -62 -2 -57 -20z"/>
<path d="M2850 5563 c0 -21 3 -24 9 -14 5 8 7 20 4 28 -8 21 -13 15 -13 -14z"/>
<path d="M3130 5558 c0 -7 5 -20 11 -28 8 -11 12 -12 16 -2 2 6 14 12 26 12
21 1 21 1 -3 15 -31 18 -50 19 -50 3z"/>
<path d="M3685 5540 c3 -6 1 -10 -4 -10 -20 0 -11 -29 10 -35 11 -4 22 -5 24
-3 9 8 -8 47 -22 52 -8 3 -11 1 -8 -4z"/>
<path d="M3150 5510 c-13 -8 -13 -10 2 -10 9 0 20 5 23 10 8 13 -5 13 -25 0z"/>
<path d="M2865 5474 c-18 -13 -18 -14 8 -12 26 2 35 12 19 22 -4 2 -16 -2 -27
-10z"/>
<path d="M3741 5454 c0 -11 3 -14 6 -6 3 7 2 16 -1 19 -3 4 -6 -2 -5 -13z"/>
<path d="M2796 5437 c3 -10 9 -15 12 -12 3 3 0 11 -7 18 -10 9 -11 8 -5 -6z"/>
<path d="M3171 5434 c0 -11 3 -14 6 -6 3 7 2 16 -1 19 -3 4 -6 -2 -5 -13z"/>
<path d="M2742 5390 c-12 -19 -11 -20 8 -8 11 7 20 16 20 20 0 15 -15 8 -28
-12z"/>
<path d="M3186 5374 c4 -37 11 -39 12 -4 0 16 -3 30 -7 30 -5 0 -7 -12 -5 -26z"/>
<path d="M3760 5381 c0 -6 4 -13 10 -16 6 -3 7 1 4 9 -7 18 -14 21 -14 7z"/>
<path d="M2676 5355 c-3 -8 -1 -15 4 -15 6 0 10 7 10 15 0 8 -2 15 -4 15 -2 0
-6 -7 -10 -15z"/>
<path d="M1880 5337 c0 -7 5 -18 12 -25 9 -9 9 -12 0 -12 -7 0 -12 -8 -12 -18
0 -10 -4 -22 -8 -27 -5 -6 -5 -26 -1 -45 l6 -35 2 33 c1 30 11 38 43 33 7 0 5
27 -6 77 -7 31 -36 46 -36 19z"/>
<path d="M3230 5315 c0 -8 4 -15 10 -15 5 0 7 7 4 15 -4 8 -8 15 -10 15 -2 0
-4 -7 -4 -15z"/>
<path d="M3668 5293 c12 -2 30 -2 40 0 9 3 -1 5 -23 4 -22 0 -30 -2 -17 -4z"/>
<path d="M3501 5279 c-13 -5 -21 -12 -18 -15 3 -3 15 0 27 6 12 6 34 9 48 6
20 -5 23 -4 12 4 -18 12 -37 12 -69 -1z"/>
<path d="M2645 5250 c-3 -5 -1 -10 4 -10 6 0 11 5 11 10 0 6 -2 10 -4 10 -3 0
-8 -4 -11 -10z"/>
<path d="M3408 5253 c12 -2 30 -2 40 0 9 3 -1 5 -23 4 -22 0 -30 -2 -17 -4z"/>
<path d="M1960 5160 c0 -33 3 -40 20 -40 13 0 20 -7 20 -20 0 -17 7 -20 40
-20 l40 0 0 60 0 60 -60 0 -60 0 0 -40z"/>
<path d="M2448 5093 c7 -3 16 -2 19 1 4 3 -2 6 -13 5 -11 0 -14 -3 -6 -6z"/>
<path d="M1891 5054 c0 -11 3 -14 6 -6 3 7 2 16 -1 19 -3 4 -6 -2 -5 -13z"/>
<path d="M2263 5063 c9 -2 23 -2 30 0 6 3 -1 5 -18 5 -16 0 -22 -2 -12 -5z"/>
<path d="M3755 5053 c-31 -8 -42 -23 -17 -23 13 0 22 -6 22 -15 0 -8 9 -15 20
-15 16 0 20 7 20 30 0 30 -5 33 -45 23z"/>
<path d="M3925 5039 c-11 -17 4 -59 21 -59 10 0 14 6 11 15 -4 8 -2 17 4 21 6
4 6 11 -2 20 -14 17 -25 18 -34 3z"/>
<path d="M2018 5023 c7 -3 16 -2 19 1 4 3 -2 6 -13 5 -11 0 -14 -3 -6 -6z"/>
<path d="M3975 5011 c-3 -6 1 -11 9 -11 8 0 16 -8 18 -17 2 -12 6 -14 10 -7 4
6 -1 19 -11 28 -13 11 -21 14 -26 7z"/>
<path d="M3920 4950 c0 -5 9 -10 21 -10 11 0 17 5 14 10 -3 6 -13 10 -21 10
-8 0 -14 -4 -14 -10z"/>
<path d="M3557 4920 c-5 -20 -37 -29 -37 -10 0 6 -9 10 -20 10 -15 0 -20 -7
-20 -29 0 -16 -3 -43 -6 -60 -6 -27 -10 -31 -40 -31 -19 0 -34 -5 -34 -11 0
-5 -4 -8 -8 -5 -5 3 -4 -10 2 -30 7 -20 16 -32 23 -29 8 3 13 -5 13 -20 0 -20
5 -25 25 -25 24 0 25 2 25 63 l0 62 120 -3 c115 -3 120 -2 120 17 0 14 -6 21
-20 21 -13 0 -20 7 -20 20 0 16 -7 20 -30 20 -23 0 -30 4 -30 20 0 13 -7 20
-20 20 -11 0 -20 5 -20 10 0 18 -18 10 -23 -10z m23 -30 c0 -5 -4 -10 -10 -10
-5 0 -10 5 -10 10 0 6 5 10 10 10 6 0 10 -4 10 -10z"/>
<path d="M3346 4915 c-3 -8 -1 -15 4 -15 6 0 10 7 10 15 0 8 -2 15 -4 15 -2 0
-6 -7 -10 -15z"/>
<path d="M3351 4874 c0 -11 3 -14 6 -6 3 7 2 16 -1 19 -3 4 -6 -2 -5 -13z"/>
<path d="M3377 4821 c3 -12 9 -21 14 -21 14 0 11 16 -5 29 -12 10 -13 8 -9 -8z"/>
<path d="M3940 4800 c0 -5 6 -10 14 -10 8 0 18 5 21 10 3 6 -3 10 -14 10 -12
0 -21 -4 -21 -10z"/>
<path d="M3720 4669 c0 -5 5 -7 10 -4 6 3 10 8 10 11 0 2 -4 4 -10 4 -5 0 -10
-5 -10 -11z"/>
<path d="M3470 4594 c0 -8 11 -14 25 -14 14 0 25 4 25 9 0 5 -11 11 -25 13
-17 4 -25 1 -25 -8z"/>
<path d="M2215 4586 c-17 -12 -17 -15 -3 -29 14 -15 16 -14 21 11 7 34 5 35
-18 18z"/>
<path d="M2248 4577 c-3 -19 -2 -25 4 -19 6 6 8 18 6 28 -3 14 -5 12 -10 -9z"/>
<path d="M2160 4470 c0 -5 5 -10 10 -10 6 0 10 5 10 10 0 6 -4 10 -10 10 -5 0
-10 -4 -10 -10z"/>
<path d="M2076 4397 c3 -10 9 -15 12 -12 3 3 0 11 -7 18 -10 9 -11 8 -5 -6z"/>
<path d="M2142 4375 c0 -16 2 -22 5 -12 2 9 2 23 0 30 -3 6 -5 -1 -5 -18z"/>
<path d="M2121 4366 c-1 -20 -5 -27 -15 -23 -10 4 -13 1 -9 -9 13 -34 38 -4
30 38 -4 20 -4 19 -6 -6z"/>
<path d="M7396 7852 c-3 -5 1 -9 9 -9 8 0 12 4 9 9 -3 4 -7 8 -9 8 -2 0 -6 -4
-9 -8z"/>
<path d="M7450 7807 c-11 -9 -16 -34 -17 -86 -1 -41 -6 -77 -11 -80 -5 -3 -12
-18 -16 -33 -6 -25 -4 -28 20 -28 43 0 52 19 56 119 2 50 -1 91 -5 91 -5 0 -6
4 -2 9 9 15 -9 20 -25 8z"/>
<path d="M7920 7190 c0 -5 5 -10 10 -10 6 0 10 5 10 10 0 6 -4 10 -10 10 -5 0
-10 -4 -10 -10z"/>
<path d="M7982 7105 c6 -14 13 -24 14 -22 6 6 -9 47 -17 47 -5 0 -3 -11 3 -25z"/>
<path d="M7728 7113 c6 -2 18 -2 25 0 6 3 1 5 -13 5 -14 0 -19 -2 -12 -5z"/>
<path d="M8000 7052 c0 -5 10 -17 22 -28 l21 -19 -18 28 c-18 28 -25 33 -25
19z"/>
<path d="M7930 6966 c0 -2 7 -17 15 -32 9 -18 15 -23 15 -12 0 9 5 18 11 20 6
2 0 9 -15 16 -14 6 -26 10 -26 8z"/>
<path d="M7481 6904 c0 -11 3 -14 6 -6 3 7 2 16 -1 19 -3 4 -6 -2 -5 -13z"/>
<path d="M7952 6855 c0 -16 2 -22 5 -12 2 9 2 23 0 30 -3 6 -5 -1 -5 -18z"/>
<path d="M8090 6850 c0 -5 5 -10 11 -10 5 0 7 5 4 10 -3 6 -8 10 -11 10 -2 0
-4 -4 -4 -10z"/>
<path d="M7940 6803 c0 -13 5 -23 10 -23 13 0 13 11 0 30 -8 12 -10 11 -10 -7z"/>
<path d="M7440 6791 c0 -5 5 -13 10 -16 6 -3 10 -2 10 4 0 5 -4 13 -10 16 -5
3 -10 2 -10 -4z"/>
<path d="M7000 6660 c0 -5 7 -7 15 -4 8 4 15 8 15 10 0 2 -7 4 -15 4 -8 0 -15
-4 -15 -10z"/>
<path d="M7406 6652 c-2 -4 -1 -14 5 -22 7 -12 9 -10 9 8 0 23 -5 28 -14 14z"/>
<path d="M7905 6650 c3 -5 8 -10 11 -10 2 0 4 5 4 10 0 6 -5 10 -11 10 -5 0
-7 -4 -4 -10z"/>
<path d="M7866 6613 c-6 -14 -5 -15 5 -6 7 7 10 15 7 18 -3 3 -9 -2 -12 -12z"/>
<path d="M7877 6593 c-12 -11 -8 -23 8 -23 8 0 15 7 15 15 0 16 -12 20 -23 8z"/>
<path d="M7010 6575 c0 -8 7 -15 15 -15 8 0 15 7 15 15 0 8 -7 15 -15 15 -8 0
-15 -7 -15 -15z"/>
<path d="M7367 6533 c-4 -3 -7 -13 -7 -22 1 -13 3 -13 11 2 11 19 8 33 -4 20z"/>
<path d="M7826 6487 c3 -10 9 -15 12 -12 3 3 0 11 -7 18 -10 9 -11 8 -5 -6z"/>
<path d="M6791 6444 c0 -11 3 -14 6 -6 3 7 2 16 -1 19 -3 4 -6 -2 -5 -13z"/>
<path d="M7821 6444 c0 -11 3 -14 6 -6 3 7 2 16 -1 19 -3 4 -6 -2 -5 -13z"/>
<path d="M6900 6380 c0 -11 -5 -20 -10 -20 -7 0 -10 -48 -8 -137 l3 -138 28
-3 c22 -3 27 1 27 17 0 14 6 21 20 21 11 0 20 5 20 10 0 6 14 10 30 10 l30 0
0 130 0 130 -70 0 c-63 0 -70 -2 -70 -20z"/>
<path d="M7785 6390 c-10 -16 4 -30 31 -30 17 0 24 5 24 20 0 15 -7 20 -24 20
-14 0 -28 -4 -31 -10z"/>
<path d="M7320 6380 c0 -5 5 -10 10 -10 6 0 10 5 10 10 0 6 -4 10 -10 10 -5 0
-10 -4 -10 -10z"/>
<path d="M6789 6360 c-7 -44 -12 -58 -24 -83 -20 -41 -18 -70 2 -32 9 17 19
32 23 35 13 9 19 55 10 70 -5 8 -10 13 -11 10z"/>
<path d="M6820 6335 c0 -8 5 -15 10 -15 6 0 10 7 10 15 0 8 -4 15 -10 15 -5 0
-10 -7 -10 -15z"/>
<path d="M7880 6274 c-14 -8 -18 -14 -10 -14 8 1 24 7 34 15 24 19 10 18 -24
-1z"/>
<path d="M6820 6260 c0 -11 5 -20 10 -20 6 0 10 9 10 20 0 11 -4 20 -10 20 -5
0 -10 -9 -10 -20z"/>
<path d="M7737 6260 c-3 -11 -1 -23 4 -26 5 -3 9 -1 9 5 0 5 3 16 6 25 3 9 2
16 -4 16 -5 0 -12 -9 -15 -20z"/>
<path d="M7240 6130 c0 -5 5 -10 11 -10 5 0 7 5 4 10 -3 6 -8 10 -11 10 -2 0
-4 -4 -4 -10z"/>
<path d="M6700 6100 c0 -5 12 -10 27 -10 l27 0 -22 -16 c-32 -22 -27 -34 13
-34 28 0 35 4 35 20 0 11 -4 20 -10 20 -5 0 -10 7 -10 15 0 10 -10 15 -30 15
-16 0 -30 -4 -30 -10z"/>
<path d="M7241 6094 c0 -11 3 -14 6 -6 3 7 2 16 -1 19 -3 4 -6 -2 -5 -13z"/>
<path d="M7124 6055 c-18 -14 -17 -15 11 -9 17 4 39 11 50 15 17 6 15 8 -11 8
-16 1 -39 -6 -50 -14z"/>
<path d="M6660 6021 c0 -5 7 -11 14 -14 10 -4 13 -1 9 9 -6 15 -23 19 -23 5z"/>
<path d="M7028 6023 c7 -3 16 -2 19 1 4 3 -2 6 -13 5 -11 0 -14 -3 -6 -6z"/>
<path d="M6968 6013 c7 -3 16 -2 19 1 4 3 -2 6 -13 5 -11 0 -14 -3 -6 -6z"/>
<path d="M6818 5973 c7 -3 16 -2 19 1 4 3 -2 6 -13 5 -11 0 -14 -3 -6 -6z"/>
<path d="M8253 5813 c9 -2 25 -2 35 0 9 3 1 5 -18 5 -19 0 -27 -2 -17 -5z"/>
<path d="M7961 5783 c-23 -10 -51 -13 -80 -9 -39 5 -42 4 -21 -5 37 -16 127
-13 145 4 30 31 12 35 -44 10z"/>
<path d="M7730 5765 c0 -8 29 -12 39 -5 9 5 4 8 -13 8 -14 0 -26 -2 -26 -3z"/>
<path d="M7175 5709 c-4 -6 -5 -12 -2 -15 2 -3 7 2 10 11 7 17 1 20 -8 4z"/>
<path d="M7469 5699 c-8 -16 -8 -24 0 -32 14 -14 31 6 31 36 0 23 -17 22 -31
-4z"/>
<path d="M7923 5701 c-5 -21 -23 -29 -23 -11 0 6 -9 10 -20 10 -11 0 -20 -4
-20 -10 0 -5 5 -10 10 -10 6 0 10 -18 10 -40 0 -33 3 -40 20 -40 13 0 20 7 20
20 0 17 7 20 41 20 l40 0 -3 38 c-3 34 -6 37 -36 40 -27 3 -35 -1 -39 -17z"/>
<path d="M7810 5690 c0 -5 7 -10 15 -10 8 0 15 5 15 10 0 6 -7 10 -15 10 -8 0
-15 -4 -15 -10z"/>
<path d="M7767 5673 c-4 -3 -7 -21 -7 -40 0 -32 -1 -33 -40 -33 -29 0 -40 4
-40 15 0 10 -11 15 -35 15 -31 0 -35 -3 -41 -35 -4 -21 -12 -35 -21 -35 -27 0
-43 -28 -43 -74 0 -25 -4 -46 -10 -46 -5 0 -10 -9 -10 -20 0 -13 -7 -20 -20
-20 -18 0 -20 -7 -20 -60 0 -53 2 -60 20 -60 17 0 20 -7 20 -50 l0 -50 40 0
c22 0 40 -4 40 -10 0 -6 73 -10 200 -10 l200 0 0 60 0 60 -80 0 -80 0 0 190
c0 181 -1 190 -19 190 -11 0 -23 5 -26 10 -7 12 -19 13 -28 3z"/>
<path d="M6770 5619 c0 -18 -5 -21 -42 -19 -61 4 -78 1 -78 -10 0 -5 8 -10 18
-10 16 -1 16 -1 0 -14 -26 -20 -22 -26 17 -26 28 0 35 -4 35 -20 0 -13 7 -20
20 -20 16 0 20 -7 20 -30 0 -23 -4 -30 -20 -30 -11 0 -20 6 -20 13 0 15 -68
38 -76 25 -11 -18 7 -98 22 -98 8 0 14 5 14 10 0 6 9 10 20 10 16 0 20 -7 20
-30 0 -28 2 -30 40 -30 22 0 40 -4 40 -10 0 -5 18 -10 40 -10 38 0 40 2 40 30
0 31 17 39 38 18 10 -9 15 -9 27 3 13 12 13 19 3 42 -15 32 -24 34 -31 7 -3
-11 -12 -20 -21 -20 -14 0 -16 15 -16 100 l0 100 -40 0 c-33 0 -40 3 -40 20 0
11 -7 20 -15 20 -9 0 -15 -9 -15 -21z"/>
<path d="M7132 5585 c0 -16 2 -22 5 -12 2 9 2 23 0 30 -3 6 -5 -1 -5 -18z"/>
<path d="M6520 5547 c0 -5 14 -6 30 -2 23 5 30 3 30 -9 0 -9 5 -16 10 -16 7 0
7 6 0 20 -7 13 -19 19 -40 17 -17 -1 -30 -6 -30 -10z"/>
<path d="M7121 5534 c0 -11 3 -14 6 -6 3 7 2 16 -1 19 -3 4 -6 -2 -5 -13z"/>
<path d="M7394 5504 c3 -9 6 -18 6 -20 0 -2 9 -4 20 -4 24 0 25 6 6 26 -20 19
-40 18 -32 -2z"/>
<path d="M6578 5475 c-8 -41 2 -75 23 -75 22 0 24 19 7 67 -14 39 -24 42 -30
8z m19 -37 c-3 -7 -5 -2 -5 12 0 14 2 19 5 13 2 -7 2 -19 0 -25z"/>
<path d="M6688 5483 c6 -2 18 -2 25 0 6 3 1 5 -13 5 -14 0 -19 -2 -12 -5z"/>
<path d="M7089 5462 c-3 -20 -2 -29 4 -23 5 5 7 19 5 32 -3 20 -5 19 -9 -9z"/>
<path d="M7377 5483 c-4 -3 -7 -11 -7 -17 0 -6 5 -5 12 2 6 6 9 14 7 17 -3 3
-9 2 -12 -2z"/>
<path d="M8342 5420 c0 -14 2 -19 5 -12 2 6 2 18 0 25 -3 6 -5 1 -5 -13z"/>
<path d="M6542 5398 c-8 -22 -9 -34 -2 -36 6 -2 8 -8 5 -12 -3 -5 -1 -11 5
-15 14 -9 13 18 -2 33 -7 7 -8 12 -2 12 5 0 11 11 12 25 2 33 -1 32 -16 -7z"/>
<path d="M7333 5350 c-6 -17 -7 -30 -2 -30 9 0 24 48 17 55 -2 2 -9 -9 -15
-25z"/>
<path d="M7048 5337 c-3 -19 -2 -25 4 -19 6 6 8 18 6 28 -3 14 -5 12 -10 -9z"/>
<path d="M8321 5344 c0 -11 3 -14 6 -6 3 7 2 16 -1 19 -3 4 -6 -2 -5 -13z"/>
<path d="M6543 5303 c15 -2 37 -2 50 0 12 2 0 4 -28 4 -27 0 -38 -2 -22 -4z"/>
<path d="M7305 5281 c-3 -5 -1 -12 5 -16 5 -3 10 1 10 9 0 18 -6 21 -15 7z"/>
<path d="M6703 5273 c9 -2 23 -2 30 0 6 3 -1 5 -18 5 -16 0 -22 -2 -12 -5z"/>
<path d="M6940 5261 c0 -12 -6 -21 -16 -21 -8 0 -12 -4 -9 -10 3 -5 27 -10 53
-9 30 1 40 3 27 7 -11 4 -20 16 -20 27 0 11 -8 21 -17 23 -13 2 -18 -3 -18
-17z"/>
<path d="M6763 5263 c9 -2 23 -2 30 0 6 3 -1 5 -18 5 -16 0 -22 -2 -12 -5z"/>
<path d="M8322 5200 c0 -14 2 -19 5 -12 2 6 2 18 0 25 -3 6 -5 1 -5 -13z"/>
<path d="M7418 5143 c12 -2 32 -2 45 0 12 2 2 4 -23 4 -25 0 -35 -2 -22 -4z"/>
<path d="M7577 5123 c-7 -10 6 -13 98 -17 l70 -4 -65 7 c-36 4 -72 11 -81 15
-10 4 -19 4 -22 -1z"/>
<path d="M6270 5070 c0 -20 5 -26 25 -28 14 -1 25 3 25 8 0 6 9 10 20 10 11 0
20 4 20 9 0 14 -48 19 -60 7 -8 -8 -13 -7 -20 4 -8 12 -10 9 -10 -10z"/>
<path d="M7773 5073 c9 -2 25 -2 35 0 9 3 1 5 -18 5 -19 0 -27 -2 -17 -5z"/>
<path d="M8292 5050 c0 -19 2 -27 5 -17 2 9 2 25 0 35 -3 9 -5 1 -5 -18z"/>
<path d="M7855 5060 c17 -4 41 -8 55 -8 22 0 22 1 -5 8 -16 4 -41 8 -55 8 -22
0 -22 -1 5 -8z"/>
<path d="M6420 5016 c0 -18 -17 -24 -63 -21 -29 3 -40 -1 -48 -17 -6 -12 -7
-18 -1 -14 6 3 8 -11 7 -39 -4 -52 23 -96 55 -90 11 2 20 0 20 -6 0 -5 10 -9
23 -10 20 0 20 -1 3 -8 -19 -7 -19 -8 0 -16 10 -4 33 -7 49 -6 18 1 40 -6 53
-18 21 -18 22 -20 5 -24 -15 -4 -14 -5 3 -6 12 0 24 -7 27 -15 8 -19 55 -8 68
15 8 17 6 19 -20 19 -23 0 -29 4 -25 15 5 12 -3 15 -32 16 -31 2 -33 3 -11 6
26 4 27 6 27 74 l0 69 -36 0 c-38 0 -64 18 -64 44 0 9 -4 16 -10 16 -5 0 -10
7 -10 15 0 8 -4 15 -10 15 -5 0 -10 -6 -10 -14z m165 -276 c3 -6 -1 -7 -9 -4
-18 7 -21 14 -7 14 6 0 13 -4 16 -10z"/>
<path d="M6640 4977 c0 -8 9 -17 20 -20 11 -3 20 -1 20 4 0 4 -9 13 -20 19
-16 8 -20 8 -20 -3z"/>
<path d="M6760 4910 c-13 -8 -13 -10 2 -10 9 0 20 5 23 10 8 13 -5 13 -25 0z"/>
<path d="M6645 4789 c-4 -6 -5 -12 -2 -15 2 -3 7 2 10 11 7 17 1 20 -8 4z"/>
<path d="M7274 4758 c-4 -7 -3 -8 4 -4 7 4 20 2 29 -4 17 -11 17 -11 1 -6 -12
3 -18 0 -18 -9 0 -11 11 -15 38 -15 20 0 53 -2 72 -4 19 -2 25 -1 13 1 -13 2
-23 8 -23 13 0 8 -33 23 -52 25 -3 0 -10 3 -14 8 -11 11 -42 8 -50 -5z"/>
<path d="M7225 4749 c-4 -6 -5 -12 -2 -15 2 -3 7 2 10 11 7 17 1 20 -8 4z"/>
<path d="M7230 4711 c0 -12 29 -23 41 -15 5 3 9 11 9 17 0 7 -4 6 -10 -3 -6
-10 -10 -11 -10 -2 0 6 -7 12 -15 12 -8 0 -15 -4 -15 -9z"/>
<path d="M7475 4678 c9 -42 11 -44 30 -24 9 9 26 16 38 16 18 1 16 4 -13 20
-52 29 -63 26 -55 -12z"/>
<path d="M7570 4656 c0 -8 17 -16 47 -20 59 -8 65 -1 18 18 -46 20 -65 20 -65
2z"/>
<path d="M7750 4602 c0 -4 9 -8 19 -8 11 0 17 4 15 8 -3 4 -12 8 -20 8 -8 0
-14 -4 -14 -8z"/>
<path d="M7440 4580 c0 -13 -7 -20 -20 -20 -17 0 -20 -7 -20 -40 0 -33 -3 -40
-20 -40 -18 0 -20 -7 -20 -56 0 -35 5 -61 14 -70 17 -16 46 -19 46 -4 0 6 5
10 10 10 6 0 10 -9 10 -20 0 -17 7 -20 40 -20 33 0 40 -3 40 -20 0 -11 5 -20
10 -20 6 0 10 -9 10 -19 0 -11 6 -22 13 -25 10 -5 10 -7 0 -12 -7 -3 -13 -14
-13 -25 0 -10 -5 -19 -10 -19 -6 0 -3 -11 6 -25 9 -14 12 -30 8 -37 -6 -10 -4
-10 9 0 14 12 17 10 22 -15 12 -54 16 -60 25 -38 8 19 9 19 9 -2 2 -56 31 -74
31 -18 0 28 4 35 20 35 11 0 20 5 20 10 0 6 18 10 40 10 22 0 40 -4 40 -10 0
-5 9 -10 20 -10 17 0 20 -7 20 -40 0 -33 -3 -40 -20 -40 -13 0 -20 -7 -20 -20
0 -16 -7 -20 -35 -20 -29 0 -35 4 -36 23 0 21 -1 21 -9 2 -8 -19 -9 -19 -9 3
-1 21 -31 33 -31 11 0 -5 -5 -7 -11 -3 -6 3 -3 -5 6 -20 9 -14 21 -23 26 -20
5 3 10 -1 10 -8 4 -43 18 -68 38 -67 10 0 11 2 4 6 -7 2 -13 10 -13 18 0 18
30 41 38 29 4 -5 25 -10 47 -11 35 -2 42 1 58 28 9 17 17 42 17 56 0 21 20 53
33 53 3 0 7 -10 11 -23 3 -13 12 -24 20 -24 17 0 15 16 -7 50 -18 28 -23 97
-7 97 6 0 10 9 10 20 0 16 7 20 34 20 28 0 35 -4 38 -22 5 -32 23 -32 25 0 0
15 4 40 9 57 7 27 6 28 -9 13 -10 -9 -25 -14 -37 -11 -16 4 -20 14 -20 44 l0
39 -60 0 -60 0 0 80 c0 73 -2 80 -20 80 -13 0 -20 -7 -20 -20 0 -18 -7 -20
-60 -20 -53 0 -60 2 -60 20 0 18 -7 20 -60 20 l-60 0 0 40 c0 33 -3 40 -20 40
-13 0 -20 7 -20 20 0 17 -7 20 -40 20 -33 0 -40 -3 -40 -20z m180 -452 c0 -4
-9 -8 -20 -8 -11 0 -20 4 -20 8 0 4 9 8 20 8 11 0 20 -4 20 -8z"/>
<path d="M7835 4560 c3 -5 15 -10 26 -10 11 0 17 5 14 10 -3 6 -15 10 -26 10
-11 0 -17 -4 -14 -10z"/>
<path d="M7912 4549 c2 -7 10 -15 17 -17 8 -3 12 1 9 9 -2 7 -10 15 -17 17 -8
3 -12 -1 -9 -9z"/>
<path d="M7970 4520 c0 -5 7 -10 16 -10 8 0 12 5 9 10 -3 6 -10 10 -16 10 -5
0 -9 -4 -9 -10z"/>
<path d="M8030 4491 c0 -5 11 -11 25 -13 20 -4 23 -3 14 8 -13 16 -39 19 -39
5z"/>
<path d="M7252 4468 c7 -19 38 -22 38 -4 0 10 -9 16 -21 16 -12 0 -19 -5 -17
-12z"/>
<path d="M8070 4420 c0 -14 5 -18 17 -13 11 4 13 8 5 11 -7 2 -10 8 -6 13 3 5
0 9 -5 9 -6 0 -11 -9 -11 -20z"/>
<path d="M8100 4386 c0 -9 5 -16 10 -16 6 0 10 4 10 9 0 6 -4 13 -10 16 -5 3
-10 -1 -10 -9z"/>
<path d="M7277 4359 c7 -7 15 -10 18 -7 3 3 -2 9 -12 12 -14 6 -15 5 -6 -5z"/>
<path d="M8084 4346 c0 -13 4 -22 9 -19 10 6 9 31 -2 37 -5 3 -8 -5 -7 -18z"/>
<path d="M8044 4260 c0 -13 4 -16 10 -10 7 7 7 13 0 20 -6 6 -10 3 -10 -10z"/>
<path d="M7960 4100 c0 -5 5 -10 10 -10 6 0 10 5 10 10 0 6 -4 10 -10 10 -5 0
-10 -4 -10 -10z"/>
<path d="M7945 4070 c3 -5 8 -10 11 -10 2 0 4 5 4 10 0 6 -5 10 -11 10 -5 0
-7 -4 -4 -10z"/>
<path d="M7882 3948 c-7 -7 -12 -19 -12 -27 0 -11 5 -8 16 7 18 25 15 39 -4
20z"/>
<path d="M7836 3913 c-6 -14 -5 -15 5 -6 7 7 10 15 7 18 -3 3 -9 -2 -12 -12z"/>
<path d="M7730 3888 c0 -4 7 -8 15 -8 8 0 15 4 15 8 0 5 -7 9 -15 9 -8 0 -15
-4 -15 -9z"/>
<path d="M4270 7903 c-8 -2 -21 -7 -29 -9 -10 -3 -11 -8 -4 -15 8 -8 17 -8 32
0 12 7 47 16 79 20 l57 9 -60 0 c-33 0 -67 -2 -75 -5z"/>
<path d="M3987 7201 c-31 -10 -73 -31 -91 -45 -34 -26 -76 -97 -76 -130 0 -15
6 -13 35 13 94 82 255 79 463 -10 89 -38 99 -40 122 -27 14 7 26 22 28 32 5
25 -42 92 -86 120 -86 56 -293 81 -395 47z"/>
<path d="M5201 7169 c-71 -12 -136 -42 -151 -69 -6 -11 -17 -41 -24 -65 -12
-38 -12 -45 1 -49 27 -11 68 -6 164 18 159 41 279 51 375 33 95 -18 203 -69
257 -122 45 -45 47 -34 8 43 -55 109 -171 192 -298 212 -70 12 -258 11 -332
-1z"/>
<path d="M4483 6979 c-1 -10 5 -19 13 -19 17 0 18 14 1 28 -10 8 -13 6 -14 -9z"/>
<path d="M4087 6910 c-60 -23 -113 -63 -138 -104 -30 -48 -23 -50 23 -6 24 23
68 53 98 68 47 22 68 26 145 27 85 0 94 -2 163 -38 39 -20 72 -33 72 -28 0 16
-64 63 -112 82 -60 25 -187 24 -251 -1z"/>
<path d="M4530 6913 c0 -7 4 -14 9 -17 5 -3 17 -41 26 -83 27 -121 17 -288
-25 -418 -17 -55 -41 -115 -51 -134 -26 -45 -17 -51 14 -9 104 139 140 380 83
552 -25 74 -56 134 -56 109z"/>
<path d="M5197 6862 c-44 -16 -117 -74 -117 -93 0 -15 15 -10 27 10 15 23 103
58 170 67 107 14 259 -43 349 -130 30 -29 54 -46 54 -38 0 23 -116 131 -163
152 -113 50 -235 62 -320 32z"/>
<path d="M4113 6845 c-18 -7 -71 -50 -118 -94 -47 -45 -92 -81 -100 -81 -8 0
-15 -4 -15 -10 0 -5 11 -10 24 -10 57 0 90 15 152 71 35 33 69 59 74 59 6 0
10 -22 10 -49 0 -55 23 -91 72 -117 64 -33 161 13 174 82 l7 36 36 -36 c24
-23 46 -36 61 -35 14 1 18 3 9 6 -8 2 -21 19 -28 38 -17 49 -102 122 -164 140
-63 19 -152 19 -194 0z m145 -99 c6 -29 -15 -43 -35 -24 -14 14 -14 20 -3 33
16 19 34 15 38 -9z"/>
<path d="M5263 6790 c-59 -12 -93 -32 -140 -83 -42 -46 -78 -105 -70 -114 6
-6 48 21 107 67 41 33 90 60 108 60 4 0 5 -24 4 -54 -3 -48 0 -57 25 -86 25
-28 38 -34 86 -38 55 -4 58 -3 97 36 31 30 40 48 40 73 l0 34 46 -52 46 -53
63 0 c35 0 67 5 70 10 4 6 -8 10 -30 10 -31 0 -45 8 -93 58 -81 83 -120 109
-187 127 -64 16 -106 17 -172 5z m105 -103 c4 -20 -25 -34 -40 -19 -15 15 -1
44 19 40 10 -2 19 -11 21 -21z"/>
<path d="M3955 6639 c-17 -6 -17 -8 -2 -8 18 -1 24 -17 7 -23 -16 -5 37 -81
74 -106 36 -25 51 -28 40 -9 -4 7 -3 9 2 4 5 -5 9 -14 9 -20 0 -17 85 -39 137
-34 48 4 178 61 178 77 0 5 -21 2 -47 -7 -151 -49 -270 -16 -352 98 -21 28
-31 34 -46 28z"/>
<path d="M6501 6563 c-23 -9 -71 -67 -66 -80 2 -7 -1 -10 -8 -7 -13 5 -47 -64
-47 -94 0 -14 2 -15 10 -2 6 10 9 6 8 -16 -1 -16 5 -41 12 -54 8 -14 15 -38
17 -55 4 -34 -25 -145 -39 -145 -4 0 -8 -7 -8 -16 0 -8 5 -12 11 -8 6 3 3 -6
-7 -22 -17 -28 -16 -27 20 6 29 28 36 40 31 60 -4 16 -2 20 3 12 13 -19 42 63
42 116 0 23 -11 67 -25 98 l-25 56 23 40 c24 45 53 79 60 72 2 -3 7 7 9 21 5
26 3 27 -21 18z m-64 -385 c-3 -8 -6 -5 -6 6 -1 11 2 17 5 13 3 -3 4 -12 1
-19z"/>
<path d="M5635 6531 c-8 -27 -93 -86 -149 -105 -39 -13 -62 -14 -135 -6 -48 5
-114 19 -147 29 l-59 20 35 -29 c19 -16 41 -27 48 -25 7 3 11 1 8 -4 -8 -13
37 -29 102 -37 73 -8 135 10 235 68 41 24 76 38 88 35 10 -3 19 -1 19 4 0 5
-7 9 -15 9 -26 0 -16 21 15 33 40 15 38 27 -4 27 -26 0 -36 -5 -41 -19z m-300
-131 c3 -5 1 -10 -4 -10 -6 0 -11 5 -11 10 0 6 2 10 4 10 3 0 8 -4 11 -10z"/>
<path d="M4362 6153 c-54 -45 -76 -85 -68 -128 11 -58 84 -113 134 -100 17 4
32 -2 57 -24 42 -37 133 -71 188 -71 53 1 107 20 151 54 32 24 38 25 88 16 69
-14 140 2 168 37 32 41 27 108 -12 169 -18 27 -31 53 -30 57 1 5 -2 6 -8 2 -6
-4 -17 -1 -25 5 -21 17 -20 -3 1 -35 25 -38 42 -107 33 -132 -4 -12 -19 -29
-34 -39 -22 -14 -31 -15 -70 -4 -60 17 -101 7 -164 -40 -37 -28 -63 -40 -87
-40 -49 0 -129 33 -180 75 -30 25 -53 36 -72 35 -47 -3 -53 -1 -66 32 -12 27
-12 39 -1 76 8 24 21 52 31 63 30 34 10 29 -34 -8z"/>
<path d="M5100 6083 c0 -11 28 -52 57 -84 26 -29 43 -86 21 -73 -9 5 -8 2 2
-12 48 -64 75 -82 155 -103 53 -14 55 -14 55 9 0 13 -7 20 -20 20 -21 0 -120
77 -160 124 -60 72 -110 126 -110 119z m131 -170 c18 -20 27 -32 19 -26 -8 6
-23 9 -32 8 -9 -2 -19 3 -22 11 -3 8 0 14 6 14 7 0 6 5 -2 15 -25 30 -3 14 31
-22z"/>
<path d="M4797 6019 c-29 -8 -67 -31 -67 -41 0 -12 38 -10 62 3 18 9 20 9 15
-4 -5 -14 -2 -14 34 -2 25 9 57 12 85 8 38 -5 44 -3 38 10 -3 9 -16 19 -27 23
-28 9 -111 11 -140 3z"/>
<path d="M4658 5953 c7 -3 16 -2 19 1 4 3 -2 6 -13 5 -11 0 -14 -3 -6 -6z"/>
<path d="M4825 5866 c-13 -13 -27 -21 -31 -17 -4 3 -4 0 0 -6 12 -21 40 -14
64 18 19 24 21 29 7 29 -9 0 -27 -11 -40 -24z"/>
<path d="M4086 5824 c-21 -21 -38 -50 -42 -71 -7 -34 11 -139 24 -147 4 -2 7
33 7 79 0 78 2 86 32 129 39 55 29 60 -21 10z"/>
<path d="M4718 5813 c7 -3 16 -2 19 1 4 3 -2 6 -13 5 -11 0 -14 -3 -6 -6z"/>
<path d="M4090 5745 c0 -8 2 -15 4 -15 2 0 6 7 10 15 3 8 1 15 -4 15 -6 0 -10
-7 -10 -15z"/>
<path d="M5446 5748 c5 -7 19 -29 32 -48 19 -28 23 -44 19 -80 -5 -40 -4 -43
9 -25 27 37 15 94 -29 143 -22 23 -43 30 -31 10z"/>
<path d="M5440 5717 c0 -1 7 -24 15 -50 8 -26 12 -61 8 -77 -3 -17 -1 -30 4
-30 13 0 24 78 16 108 -3 12 -9 19 -14 16 -5 -3 -6 1 -3 9 3 8 -2 17 -10 20
-9 4 -16 5 -16 4z"/>
<path d="M4206 5657 c-16 -11 -15 -14 11 -39 15 -14 55 -39 87 -55 35 -18 54
-33 48 -37 -7 -4 -12 -3 -12 2 0 5 -9 12 -20 15 -11 3 -20 2 -20 -2 0 -4 33
-42 73 -84 99 -104 171 -138 303 -145 119 -6 195 9 298 59 112 53 196 105 196
119 0 4 -19 4 -42 -1 -79 -15 -84 -8 -8 11 41 10 106 33 144 50 63 29 67 33
53 47 -15 15 -23 14 -92 -6 -54 -16 -79 -20 -88 -12 -8 6 -81 10 -193 9 -98 0
-208 -1 -244 -1 -36 0 -92 7 -125 16 -33 9 -104 21 -158 27 -54 5 -110 13
-125 16 -26 6 -26 5 9 -27 20 -19 45 -40 55 -47 11 -7 6 -6 -11 2 -16 8 -48
33 -70 55 -44 46 -44 46 -69 28z m214 -107 c18 -12 2 -12 -25 0 -13 6 -15 9
-5 9 8 0 22 -4 30 -9z m650 -5 c-19 -7 -44 -13 -55 -13 -11 0 -2 5 20 13 53
17 80 17 35 0z m-573 -21 c-3 -3 -12 -4 -19 -1 -8 3 -5 6 6 6 11 1 17 -2 13
-5z m490 0 c-3 -3 -12 -4 -19 -1 -8 3 -5 6 6 6 11 1 17 -2 13 -5z m-562 -14
c3 -6 -1 -7 -9 -4 -18 7 -21 14 -7 14 6 0 13 -4 16 -10z m118 3 c-7 -2 -19 -2
-25 0 -7 3 -2 5 12 5 14 0 19 -2 13 -5z m380 0 c-7 -2 -21 -2 -30 0 -10 3 -4
5 12 5 17 0 24 -2 18 -5z m-320 -10 c-7 -2 -21 -2 -30 0 -10 3 -4 5 12 5 17 0
24 -2 18 -5z m260 0 c-7 -2 -21 -2 -30 0 -10 3 -4 5 12 5 17 0 24 -2 18 -5z
m-353 -13 c20 -6 21 -8 5 -8 -11 0 -29 3 -40 8 -25 11 1 11 35 0z m268 3 c-21
-2 -55 -2 -75 0 -21 2 -4 4 37 4 41 0 58 -2 38 -4z m250 -20 c-10 -2 -26 -2
-35 0 -10 3 -2 5 17 5 19 0 27 -2 18 -5z m-395 -10 c-7 -2 -21 -2 -30 0 -10 3
-4 5 12 5 17 0 24 -2 18 -5z m325 0 c-10 -2 -26 -2 -35 0 -10 3 -2 5 17 5 19
0 27 -2 18 -5z m-115 -10 c-34 -2 -93 -2 -130 0 -37 2 -9 3 62 3 72 0 102 -1
68 -3z"/>
<path d="M5456 5533 c-6 -14 -5 -15 5 -6 7 7 10 15 7 18 -3 3 -9 -2 -12 -12z"/>
<path d="M4460 5295 c0 -1 14 -12 32 -25 l31 -23 -19 25 c-10 14 -24 25 -31
25 -7 0 -13 -1 -13 -2z"/>
<path d="M4897 5269 c-11 -6 -69 -14 -130 -19 -70 -4 -91 -8 -54 -9 51 -1 57
-3 57 -22 0 -18 4 -20 33 -14 27 6 117 61 117 72 0 5 -3 4 -23 -8z m-52 -29
c-3 -5 -12 -10 -18 -10 -7 0 -6 4 3 10 19 12 23 12 15 0z"/>
<path d="M4610 5250 c8 -5 22 -9 30 -9 10 0 8 3 -5 9 -27 12 -43 12 -25 0z"/>
<path d="M7662 6820 c0 -14 2 -19 5 -12 2 6 2 18 0 25 -3 6 -5 1 -5 -13z"/>
<path d="M7761 6794 c0 -11 3 -14 6 -6 3 7 2 16 -1 19 -3 4 -6 -2 -5 -13z"/>
<path d="M7680 6784 c0 -7 -3 -19 -6 -28 -5 -12 1 -16 24 -16 17 0 34 5 38 12
4 7 3 8 -4 4 -8 -5 -12 1 -12 18 0 19 -5 24 -20 23 -11 -1 -20 -7 -20 -13z"/>
<path d="M2990 4311 c0 -5 7 -11 15 -15 8 -3 15 -1 15 3 0 5 -7 11 -15 15 -8
3 -15 1 -15 -3z"/>
<path d="M2948 4142 c-16 -2 -28 -8 -28 -13 0 -5 -13 -9 -29 -9 -43 0 -46 -37
-7 -70 44 -37 74 -34 87 10 6 19 9 47 7 60 -2 21 -8 24 -30 22z"/>
<path d="M2880 3895 c0 -8 -6 -15 -13 -15 -18 0 -68 -77 -61 -94 5 -13 34 -26
60 -26 6 0 19 19 30 41 17 38 17 42 2 53 -11 8 -15 20 -11 34 3 12 3 22 -1 22
-3 0 -6 -7 -6 -15z"/>
<path d="M2746 3630 c-12 -21 -25 -30 -42 -30 -14 0 -27 -7 -31 -16 -8 -22 26
-47 52 -39 11 3 26 7 32 9 17 3 42 37 43 57 0 9 -8 23 -18 32 -17 15 -19 15
-36 -13z"/>
<path d="M2390 3510 c0 -17 83 -95 121 -114 31 -15 87 -8 146 20 45 20 49 32
16 45 -15 6 -41 16 -58 24 -16 7 -55 16 -85 19 -30 3 -74 9 -97 12 -32 5 -43
3 -43 -6z m60 -24 c0 -2 -7 -7 -16 -10 -8 -3 -12 -2 -9 4 6 10 25 14 25 6z"/>
<path d="M3272 4305 c0 -16 2 -22 5 -12 2 9 2 23 0 30 -3 6 -5 -1 -5 -18z"/>
<path d="M4265 3787 c-39 -39 -50 -72 -40 -124 21 -111 162 -127 205 -23 21
50 8 119 -29 152 -45 40 -93 38 -136 -5z"/>
<path d="M5578 3730 c-35 -27 -61 -95 -53 -137 14 -77 91 -121 154 -88 84 43
95 176 19 229 -31 22 -90 20 -120 -4z"/>
<path d="M4842 2516 c-72 -33 -114 -107 -114 -201 1 -73 11 -101 54 -150 40
-47 82 -65 148 -65 65 0 108 18 147 63 83 95 65 260 -36 332 -33 23 -54 30
-104 32 -39 2 -74 -2 -95 -11z"/>
<path d="M3240 2377 c-19 -56 -38 -112 -41 -124 -7 -23 -6 -23 81 -23 l89 0
-41 118 c-23 64 -44 120 -47 124 -4 4 -22 -38 -41 -95z"/>
<path d="M7393 2355 l-41 -125 90 0 c68 0 89 3 85 13 -2 6 -21 59 -42 117 -20
58 -40 108 -44 112 -4 4 -25 -49 -48 -117z"/>
<path d="M6020 1545 l0 -95 85 0 c78 0 88 2 110 25 17 17 25 35 25 60 0 76
-41 105 -150 105 l-70 0 0 -95z"/>
<path d="M6740 1618 c-121 -65 -146 -245 -46 -344 71 -72 171 -82 249 -27 116
81 118 267 4 357 -53 42 -142 48 -207 14z"/>
<path d="M3190 1425 l0 -205 70 0 c85 0 125 15 167 63 36 41 58 126 48 185 -9
58 -46 114 -90 139 -32 18 -56 23 -117 23 l-78 0 0 -205z"/>
</g>
</svg>
